<svg width="239" height="202" viewBox="0 0 239 202" fill="none" xmlns="http://www.w3.org/2000/svg">
<g filter="url(#filter0_d_25:41)">
<rect x="19" y="13" width="201" height="165" rx="48.6726" fill="url(#paint0_linear_25:41)" shape-rendering="crispEdges"/>
<rect x="19.5" y="13.5" width="200" height="164" rx="48.1726" stroke="#FBFBFB" stroke-opacity="0.8" shape-rendering="crispEdges"/>
</g>
<path d="M54.9 29.05L52.6 33.48V36H51.46V33.48L49.15 29.05H50.42L52.03 32.46L53.64 29.05H54.9ZM58.0947 36.09C57.5747 36.09 57.1047 35.9733 56.6847 35.74C56.2647 35.5 55.9347 35.1667 55.6947 34.74C55.4547 34.3067 55.3347 33.8067 55.3347 33.24C55.3347 32.68 55.458 32.1833 55.7047 31.75C55.9514 31.3167 56.288 30.9833 56.7147 30.75C57.1414 30.5167 57.618 30.4 58.1447 30.4C58.6714 30.4 59.148 30.5167 59.5747 30.75C60.0014 30.9833 60.338 31.3167 60.5847 31.75C60.8314 32.1833 60.9547 32.68 60.9547 33.24C60.9547 33.8 60.828 34.2967 60.5747 34.73C60.3214 35.1633 59.9747 35.5 59.5347 35.74C59.1014 35.9733 58.6214 36.09 58.0947 36.09ZM58.0947 35.1C58.388 35.1 58.6614 35.03 58.9147 34.89C59.1747 34.75 59.3847 34.54 59.5447 34.26C59.7047 33.98 59.7847 33.64 59.7847 33.24C59.7847 32.84 59.708 32.5033 59.5547 32.23C59.4014 31.95 59.198 31.74 58.9447 31.6C58.6914 31.46 58.418 31.39 58.1247 31.39C57.8314 31.39 57.558 31.46 57.3047 31.6C57.058 31.74 56.8614 31.95 56.7147 32.23C56.568 32.5033 56.4947 32.84 56.4947 33.24C56.4947 33.8333 56.6447 34.2933 56.9447 34.62C57.2514 34.94 57.6347 35.1 58.0947 35.1ZM66.9716 30.49V36H65.8316V35.35C65.6516 35.5767 65.415 35.7567 65.1216 35.89C64.835 36.0167 64.5283 36.08 64.2016 36.08C63.7683 36.08 63.3783 35.99 63.0316 35.81C62.6916 35.63 62.4216 35.3633 62.2216 35.01C62.0283 34.6567 61.9316 34.23 61.9316 33.73V30.49H63.0616V33.56C63.0616 34.0533 63.185 34.4333 63.4316 34.7C63.6783 34.96 64.015 35.09 64.4416 35.09C64.8683 35.09 65.205 34.96 65.4516 34.7C65.705 34.4333 65.8316 34.0533 65.8316 33.56V30.49H66.9716ZM69.5158 31.29C69.6824 31.01 69.9024 30.7933 70.1758 30.64C70.4558 30.48 70.7858 30.4 71.1658 30.4V31.58H70.8758C70.4291 31.58 70.0891 31.6933 69.8558 31.92C69.6291 32.1467 69.5158 32.54 69.5158 33.1V36H68.3758V30.49H69.5158V31.29ZM74.2313 33.22C74.2313 32.6667 74.3447 32.1767 74.5713 31.75C74.8047 31.3233 75.118 30.9933 75.5113 30.76C75.9113 30.52 76.3547 30.4 76.8413 30.4C77.2013 30.4 77.5547 30.48 77.9013 30.64C78.2547 30.7933 78.5347 31 78.7413 31.26V28.6H79.8913V36H78.7413V35.17C78.5547 35.4367 78.2947 35.6567 77.9613 35.83C77.6347 36.0033 77.258 36.09 76.8313 36.09C76.3513 36.09 75.9113 35.97 75.5113 35.73C75.118 35.4833 74.8047 35.1433 74.5713 34.71C74.3447 34.27 74.2313 33.7733 74.2313 33.22ZM78.7413 33.24C78.7413 32.86 78.6613 32.53 78.5013 32.25C78.348 31.97 78.1447 31.7567 77.8913 31.61C77.638 31.4633 77.3647 31.39 77.0713 31.39C76.778 31.39 76.5047 31.4633 76.2513 31.61C75.998 31.75 75.7913 31.96 75.6313 32.24C75.478 32.5133 75.4013 32.84 75.4013 33.22C75.4013 33.6 75.478 33.9333 75.6313 34.22C75.7913 34.5067 75.998 34.7267 76.2513 34.88C76.5113 35.0267 76.7847 35.1 77.0713 35.1C77.3647 35.1 77.638 35.0267 77.8913 34.88C78.1447 34.7333 78.348 34.52 78.5013 34.24C78.6613 33.9533 78.7413 33.62 78.7413 33.24ZM80.9087 33.22C80.9087 32.6667 81.022 32.1767 81.2487 31.75C81.482 31.3233 81.7953 30.9933 82.1887 30.76C82.5887 30.52 83.0287 30.4 83.5087 30.4C83.942 30.4 84.3187 30.4867 84.6387 30.66C84.9653 30.8267 85.2253 31.0367 85.4187 31.29V30.49H86.5687V36H85.4187V35.18C85.2253 35.44 84.962 35.6567 84.6287 35.83C84.2953 36.0033 83.9153 36.09 83.4887 36.09C83.0153 36.09 82.582 35.97 82.1887 35.73C81.7953 35.4833 81.482 35.1433 81.2487 34.71C81.022 34.27 80.9087 33.7733 80.9087 33.22ZM85.4187 33.24C85.4187 32.86 85.3387 32.53 85.1787 32.25C85.0253 31.97 84.822 31.7567 84.5687 31.61C84.3153 31.4633 84.042 31.39 83.7487 31.39C83.4553 31.39 83.182 31.4633 82.9287 31.61C82.6753 31.75 82.4687 31.96 82.3087 32.24C82.1553 32.5133 82.0787 32.84 82.0787 33.22C82.0787 33.6 82.1553 33.9333 82.3087 34.22C82.4687 34.5067 82.6753 34.7267 82.9287 34.88C83.1887 35.0267 83.462 35.1 83.7487 35.1C84.042 35.1 84.3153 35.0267 84.5687 34.88C84.822 34.7333 85.0253 34.52 85.1787 34.24C85.3387 33.9533 85.4187 33.62 85.4187 33.24ZM88.546 29.76C88.3393 29.76 88.166 29.69 88.026 29.55C87.886 29.41 87.816 29.2367 87.816 29.03C87.816 28.8233 87.886 28.65 88.026 28.51C88.166 28.37 88.3393 28.3 88.546 28.3C88.746 28.3 88.916 28.37 89.056 28.51C89.196 28.65 89.266 28.8233 89.266 29.03C89.266 29.2367 89.196 29.41 89.056 29.55C88.916 29.69 88.746 29.76 88.546 29.76ZM89.106 30.49V36H87.966V30.49H89.106ZM90.1227 33.22C90.1227 32.6667 90.2361 32.1767 90.4627 31.75C90.6961 31.3233 91.0094 30.9933 91.4027 30.76C91.8027 30.52 92.2461 30.4 92.7327 30.4C93.0927 30.4 93.4461 30.48 93.7927 30.64C94.1461 30.7933 94.4261 31 94.6327 31.26V28.6H95.7827V36H94.6327V35.17C94.4461 35.4367 94.1861 35.6567 93.8527 35.83C93.5261 36.0033 93.1494 36.09 92.7227 36.09C92.2427 36.09 91.8027 35.97 91.4027 35.73C91.0094 35.4833 90.6961 35.1433 90.4627 34.71C90.2361 34.27 90.1227 33.7733 90.1227 33.22ZM94.6327 33.24C94.6327 32.86 94.5527 32.53 94.3927 32.25C94.2394 31.97 94.0361 31.7567 93.7827 31.61C93.5294 31.4633 93.2561 31.39 92.9627 31.39C92.6694 31.39 92.3961 31.4633 92.1427 31.61C91.8894 31.75 91.6827 31.96 91.5227 32.24C91.3694 32.5133 91.2927 32.84 91.2927 33.22C91.2927 33.6 91.3694 33.9333 91.5227 34.22C91.6827 34.5067 91.8894 34.7267 92.1427 34.88C92.4027 35.0267 92.6761 35.1 92.9627 35.1C93.2561 35.1 93.5294 35.0267 93.7827 34.88C94.0361 34.7333 94.2394 34.52 94.3927 34.24C94.5527 33.9533 94.6327 33.62 94.6327 33.24ZM102.14 30.49L98.7601 38.59H97.5801L98.7001 35.91L96.5301 30.49H97.8001L99.3501 34.69L100.96 30.49H102.14ZM107.398 36.09C106.965 36.09 106.575 36.0133 106.228 35.86C105.888 35.7 105.618 35.4867 105.418 35.22C105.218 34.9467 105.111 34.6433 105.098 34.31H106.278C106.298 34.5433 106.408 34.74 106.608 34.9C106.815 35.0533 107.071 35.13 107.378 35.13C107.698 35.13 107.945 35.07 108.118 34.95C108.298 34.8233 108.388 34.6633 108.388 34.47C108.388 34.2633 108.288 34.11 108.088 34.01C107.895 33.91 107.585 33.8 107.158 33.68C106.745 33.5667 106.408 33.4567 106.148 33.35C105.888 33.2433 105.661 33.08 105.468 32.86C105.281 32.64 105.188 32.35 105.188 31.99C105.188 31.6967 105.275 31.43 105.448 31.19C105.621 30.9433 105.868 30.75 106.188 30.61C106.515 30.47 106.888 30.4 107.308 30.4C107.935 30.4 108.438 30.56 108.818 30.88C109.205 31.1933 109.411 31.6233 109.438 32.17H108.298C108.278 31.9233 108.178 31.7267 107.998 31.58C107.818 31.4333 107.575 31.36 107.268 31.36C106.968 31.36 106.738 31.4167 106.578 31.53C106.418 31.6433 106.338 31.7933 106.338 31.98C106.338 32.1267 106.391 32.25 106.498 32.35C106.605 32.45 106.735 32.53 106.888 32.59C107.041 32.6433 107.268 32.7133 107.568 32.8C107.968 32.9067 108.295 33.0167 108.548 33.13C108.808 33.2367 109.031 33.3967 109.218 33.61C109.405 33.8233 109.501 34.1067 109.508 34.46C109.508 34.7733 109.421 35.0533 109.248 35.3C109.075 35.5467 108.828 35.74 108.508 35.88C108.195 36.02 107.825 36.09 107.398 36.09ZM110.26 33.22C110.26 32.6667 110.373 32.1767 110.6 31.75C110.833 31.3233 111.147 30.9933 111.54 30.76C111.94 30.52 112.38 30.4 112.86 30.4C113.293 30.4 113.67 30.4867 113.99 30.66C114.317 30.8267 114.577 31.0367 114.77 31.29V30.49H115.92V36H114.77V35.18C114.577 35.44 114.313 35.6567 113.98 35.83C113.647 36.0033 113.267 36.09 112.84 36.09C112.367 36.09 111.933 35.97 111.54 35.73C111.147 35.4833 110.833 35.1433 110.6 34.71C110.373 34.27 110.26 33.7733 110.26 33.22ZM114.77 33.24C114.77 32.86 114.69 32.53 114.53 32.25C114.377 31.97 114.173 31.7567 113.92 31.61C113.667 31.4633 113.393 31.39 113.1 31.39C112.807 31.39 112.533 31.4633 112.28 31.61C112.027 31.75 111.82 31.96 111.66 32.24C111.507 32.5133 111.43 32.84 111.43 33.22C111.43 33.6 111.507 33.9333 111.66 34.22C111.82 34.5067 112.027 34.7267 112.28 34.88C112.54 35.0267 112.813 35.1 113.1 35.1C113.393 35.1 113.667 35.0267 113.92 34.88C114.173 34.7333 114.377 34.52 114.53 34.24C114.69 33.9533 114.77 33.62 114.77 33.24ZM118.457 28.6V36H117.317V28.6H118.457ZM124.904 33.11C124.904 33.3167 124.891 33.5033 124.864 33.67H120.654C120.687 34.11 120.851 34.4633 121.144 34.73C121.437 34.9967 121.797 35.13 122.224 35.13C122.837 35.13 123.271 34.8733 123.524 34.36H124.754C124.587 34.8667 124.284 35.2833 123.844 35.61C123.411 35.93 122.871 36.09 122.224 36.09C121.697 36.09 121.224 35.9733 120.804 35.74C120.391 35.5 120.064 35.1667 119.824 34.74C119.591 34.3067 119.474 33.8067 119.474 33.24C119.474 32.6733 119.587 32.1767 119.814 31.75C120.047 31.3167 120.371 30.9833 120.784 30.75C121.204 30.5167 121.684 30.4 122.224 30.4C122.744 30.4 123.207 30.5133 123.614 30.74C124.021 30.9667 124.337 31.2867 124.564 31.7C124.791 32.1067 124.904 32.5767 124.904 33.11ZM123.714 32.75C123.707 32.33 123.557 31.9933 123.264 31.74C122.971 31.4867 122.607 31.36 122.174 31.36C121.781 31.36 121.444 31.4867 121.164 31.74C120.884 31.9867 120.717 32.3233 120.664 32.75H123.714ZM127.926 36.09C127.492 36.09 127.102 36.0133 126.756 35.86C126.416 35.7 126.146 35.4867 125.946 35.22C125.746 34.9467 125.639 34.6433 125.626 34.31H126.806C126.826 34.5433 126.936 34.74 127.136 34.9C127.342 35.0533 127.599 35.13 127.906 35.13C128.226 35.13 128.472 35.07 128.646 34.95C128.826 34.8233 128.916 34.6633 128.916 34.47C128.916 34.2633 128.816 34.11 128.616 34.01C128.422 33.91 128.112 33.8 127.686 33.68C127.272 33.5667 126.936 33.4567 126.676 33.35C126.416 33.2433 126.189 33.08 125.996 32.86C125.809 32.64 125.716 32.35 125.716 31.99C125.716 31.6967 125.802 31.43 125.976 31.19C126.149 30.9433 126.396 30.75 126.716 30.61C127.042 30.47 127.416 30.4 127.836 30.4C128.462 30.4 128.966 30.56 129.346 30.88C129.732 31.1933 129.939 31.6233 129.966 32.17H128.826C128.806 31.9233 128.706 31.7267 128.526 31.58C128.346 31.4333 128.102 31.36 127.796 31.36C127.496 31.36 127.266 31.4167 127.106 31.53C126.946 31.6433 126.866 31.7933 126.866 31.98C126.866 32.1267 126.919 32.25 127.026 32.35C127.132 32.45 127.262 32.53 127.416 32.59C127.569 32.6433 127.796 32.7133 128.096 32.8C128.496 32.9067 128.822 33.0167 129.076 33.13C129.336 33.2367 129.559 33.3967 129.746 33.61C129.932 33.8233 130.029 34.1067 130.036 34.46C130.036 34.7733 129.949 35.0533 129.776 35.3C129.602 35.5467 129.356 35.74 129.036 35.88C128.722 36.02 128.352 36.09 127.926 36.09Z" fill="#626261"/>
<path d="M52.185 42.255C52.185 41.915 52.2633 41.61 52.42 41.34C52.58 41.07 52.795 40.86 53.065 40.71C53.3383 40.5567 53.6367 40.48 53.96 40.48C54.33 40.48 54.6583 40.5717 54.945 40.755C55.235 40.935 55.445 41.1917 55.575 41.525H54.89C54.8 41.3417 54.675 41.205 54.515 41.115C54.355 41.025 54.17 40.98 53.96 40.98C53.73 40.98 53.525 41.0317 53.345 41.135C53.165 41.2383 53.0233 41.3867 52.92 41.58C52.82 41.7733 52.77 41.9983 52.77 42.255C52.77 42.5117 52.82 42.7367 52.92 42.93C53.0233 43.1233 53.165 43.2733 53.345 43.38C53.525 43.4833 53.73 43.535 53.96 43.535C54.17 43.535 54.355 43.49 54.515 43.4C54.675 43.31 54.8 43.1733 54.89 42.99H55.575C55.445 43.3233 55.235 43.58 54.945 43.76C54.6583 43.94 54.33 44.03 53.96 44.03C53.6333 44.03 53.335 43.955 53.065 43.805C52.795 43.6517 52.58 43.44 52.42 43.17C52.2633 42.9 52.185 42.595 52.185 42.255ZM57.6172 41.2C57.8272 41.2 58.0139 41.245 58.1772 41.335C58.3439 41.425 58.4739 41.5583 58.5672 41.735C58.6639 41.9117 58.7122 42.125 58.7122 42.375V44H58.1472V42.46C58.1472 42.2133 58.0855 42.025 57.9622 41.895C57.8389 41.7617 57.6705 41.695 57.4572 41.695C57.2439 41.695 57.0739 41.7617 56.9472 41.895C56.8239 42.025 56.7622 42.2133 56.7622 42.46V44H56.1922V40.3H56.7622V41.565C56.8589 41.4483 56.9805 41.3583 57.1272 41.295C57.2772 41.2317 57.4405 41.2 57.6172 41.2ZM59.1993 42.61C59.1993 42.3333 59.2559 42.0883 59.3693 41.875C59.4859 41.6617 59.6426 41.4967 59.8393 41.38C60.0393 41.26 60.2593 41.2 60.4993 41.2C60.7159 41.2 60.9043 41.2433 61.0643 41.33C61.2276 41.4133 61.3576 41.5183 61.4543 41.645V41.245H62.0293V44H61.4543V43.59C61.3576 43.72 61.2259 43.8283 61.0593 43.915C60.8926 44.0017 60.7026 44.045 60.4893 44.045C60.2526 44.045 60.0359 43.985 59.8393 43.865C59.6426 43.7417 59.4859 43.5717 59.3693 43.355C59.2559 43.135 59.1993 42.8867 59.1993 42.61ZM61.4543 42.62C61.4543 42.43 61.4143 42.265 61.3343 42.125C61.2576 41.985 61.1559 41.8783 61.0293 41.805C60.9026 41.7317 60.7659 41.695 60.6193 41.695C60.4726 41.695 60.3359 41.7317 60.2093 41.805C60.0826 41.875 59.9793 41.98 59.8993 42.12C59.8226 42.2567 59.7843 42.42 59.7843 42.61C59.7843 42.8 59.8226 42.9667 59.8993 43.11C59.9793 43.2533 60.0826 43.3633 60.2093 43.44C60.3393 43.5133 60.4759 43.55 60.6193 43.55C60.7659 43.55 60.9026 43.5133 61.0293 43.44C61.1559 43.3667 61.2576 43.26 61.3343 43.12C61.4143 42.9767 61.4543 42.81 61.4543 42.62ZM63.2979 41.645C63.3813 41.505 63.4913 41.3967 63.6279 41.32C63.7679 41.24 63.9329 41.2 64.1229 41.2V41.79H63.9779C63.7546 41.79 63.5846 41.8467 63.4679 41.96C63.3546 42.0733 63.2979 42.27 63.2979 42.55V44H62.7279V41.245H63.2979V41.645ZM65.2619 41.71V43.235C65.2619 43.3383 65.2852 43.4133 65.3319 43.46C65.3819 43.5033 65.4652 43.525 65.5819 43.525H65.9319V44H65.4819C65.2252 44 65.0285 43.94 64.8919 43.82C64.7552 43.7 64.6869 43.505 64.6869 43.235V41.71H64.3619V41.245H64.6869V40.56H65.2619V41.245H65.9319V41.71H65.2619ZM68.6561 44.045C68.4394 44.045 68.2444 44.0067 68.0711 43.93C67.9011 43.85 67.7661 43.7433 67.6661 43.61C67.5661 43.4733 67.5127 43.3217 67.5061 43.155H68.0961C68.1061 43.2717 68.1611 43.37 68.2611 43.45C68.3644 43.5267 68.4927 43.565 68.6461 43.565C68.8061 43.565 68.9294 43.535 69.0161 43.475C69.1061 43.4117 69.1511 43.3317 69.1511 43.235C69.1511 43.1317 69.1011 43.055 69.0011 43.005C68.9044 42.955 68.7494 42.9 68.5361 42.84C68.3294 42.7833 68.1611 42.7283 68.0311 42.675C67.9011 42.6217 67.7877 42.54 67.6911 42.43C67.5977 42.32 67.5511 42.175 67.5511 41.995C67.5511 41.8483 67.5944 41.715 67.6811 41.595C67.7677 41.4717 67.8911 41.375 68.0511 41.305C68.2144 41.235 68.4011 41.2 68.6111 41.2C68.9244 41.2 69.1761 41.28 69.3661 41.44C69.5594 41.5967 69.6627 41.8117 69.6761 42.085H69.1061C69.0961 41.9617 69.0461 41.8633 68.9561 41.79C68.8661 41.7167 68.7444 41.68 68.5911 41.68C68.4411 41.68 68.3261 41.7083 68.2461 41.765C68.1661 41.8217 68.1261 41.8967 68.1261 41.99C68.1261 42.0633 68.1527 42.125 68.2061 42.175C68.2594 42.225 68.3244 42.265 68.4011 42.295C68.4777 42.3217 68.5911 42.3567 68.7411 42.4C68.9411 42.4533 69.1044 42.5083 69.2311 42.565C69.3611 42.6183 69.4727 42.6983 69.5661 42.805C69.6594 42.9117 69.7077 43.0533 69.7111 43.23C69.7111 43.3867 69.6677 43.5267 69.5811 43.65C69.4944 43.7733 69.3711 43.87 69.2111 43.94C69.0544 44.01 68.8694 44.045 68.6561 44.045ZM71.702 41.2C71.912 41.2 72.0986 41.245 72.262 41.335C72.4286 41.425 72.5586 41.5583 72.652 41.735C72.7486 41.9117 72.797 42.125 72.797 42.375V44H72.232V42.46C72.232 42.2133 72.1703 42.025 72.047 41.895C71.9236 41.7617 71.7553 41.695 71.542 41.695C71.3286 41.695 71.1586 41.7617 71.032 41.895C70.9086 42.025 70.847 42.2133 70.847 42.46V44H70.277V40.3H70.847V41.565C70.9436 41.4483 71.0653 41.3583 71.212 41.295C71.362 41.2317 71.5253 41.2 71.702 41.2ZM74.669 44.045C74.409 44.045 74.174 43.9867 73.964 43.87C73.754 43.75 73.589 43.5833 73.469 43.37C73.349 43.1533 73.289 42.9033 73.289 42.62C73.289 42.34 73.3507 42.0917 73.474 41.875C73.5974 41.6583 73.7657 41.4917 73.979 41.375C74.1924 41.2583 74.4307 41.2 74.694 41.2C74.9574 41.2 75.1957 41.2583 75.409 41.375C75.6224 41.4917 75.7907 41.6583 75.914 41.875C76.0374 42.0917 76.099 42.34 76.099 42.62C76.099 42.9 76.0357 43.1483 75.909 43.365C75.7824 43.5817 75.609 43.75 75.389 43.87C75.1724 43.9867 74.9324 44.045 74.669 44.045ZM74.669 43.55C74.8157 43.55 74.9524 43.515 75.079 43.445C75.209 43.375 75.314 43.27 75.394 43.13C75.474 42.99 75.514 42.82 75.514 42.62C75.514 42.42 75.4757 42.2517 75.399 42.115C75.3224 41.975 75.2207 41.87 75.094 41.8C74.9674 41.73 74.8307 41.695 74.684 41.695C74.5374 41.695 74.4007 41.73 74.274 41.8C74.1507 41.87 74.0524 41.975 73.979 42.115C73.9057 42.2517 73.869 42.42 73.869 42.62C73.869 42.9167 73.944 43.1467 74.094 43.31C74.2474 43.47 74.439 43.55 74.669 43.55ZM80.3125 41.245L79.4575 44H78.8575L78.3025 41.965L77.7475 44H77.1475L76.2875 41.245H76.8675L77.4425 43.46L78.0275 41.245H78.6225L79.1825 43.45L79.7525 41.245H80.3125ZM81.6885 44.045C81.4718 44.045 81.2768 44.0067 81.1035 43.93C80.9335 43.85 80.7985 43.7433 80.6985 43.61C80.5985 43.4733 80.5451 43.3217 80.5385 43.155H81.1285C81.1385 43.2717 81.1935 43.37 81.2935 43.45C81.3968 43.5267 81.5251 43.565 81.6785 43.565C81.8385 43.565 81.9618 43.535 82.0485 43.475C82.1385 43.4117 82.1835 43.3317 82.1835 43.235C82.1835 43.1317 82.1335 43.055 82.0335 43.005C81.9368 42.955 81.7818 42.9 81.5685 42.84C81.3618 42.7833 81.1935 42.7283 81.0635 42.675C80.9335 42.6217 80.8201 42.54 80.7235 42.43C80.6301 42.32 80.5835 42.175 80.5835 41.995C80.5835 41.8483 80.6268 41.715 80.7135 41.595C80.8001 41.4717 80.9235 41.375 81.0835 41.305C81.2468 41.235 81.4335 41.2 81.6435 41.2C81.9568 41.2 82.2085 41.28 82.3985 41.44C82.5918 41.5967 82.6951 41.8117 82.7085 42.085H82.1385C82.1285 41.9617 82.0785 41.8633 81.9885 41.79C81.8985 41.7167 81.7768 41.68 81.6235 41.68C81.4735 41.68 81.3585 41.7083 81.2785 41.765C81.1985 41.8217 81.1585 41.8967 81.1585 41.99C81.1585 42.0633 81.1851 42.125 81.2385 42.175C81.2918 42.225 81.3568 42.265 81.4335 42.295C81.5101 42.3217 81.6235 42.3567 81.7735 42.4C81.9735 42.4533 82.1368 42.5083 82.2635 42.565C82.3935 42.6183 82.5051 42.6983 82.5985 42.805C82.6918 42.9117 82.7401 43.0533 82.7435 43.23C82.7435 43.3867 82.7001 43.5267 82.6135 43.65C82.5268 43.7733 82.4035 43.87 82.2435 43.94C82.0868 44.01 81.9018 44.045 81.6885 44.045ZM84.3682 42.61C84.3682 42.3333 84.4249 42.0883 84.5382 41.875C84.6549 41.6617 84.8115 41.4967 85.0082 41.38C85.2082 41.26 85.4282 41.2 85.6682 41.2C85.8849 41.2 86.0732 41.2433 86.2332 41.33C86.3965 41.4133 86.5265 41.5183 86.6232 41.645V41.245H87.1982V44H86.6232V43.59C86.5265 43.72 86.3949 43.8283 86.2282 43.915C86.0615 44.0017 85.8715 44.045 85.6582 44.045C85.4215 44.045 85.2049 43.985 85.0082 43.865C84.8115 43.7417 84.6549 43.5717 84.5382 43.355C84.4249 43.135 84.3682 42.8867 84.3682 42.61ZM86.6232 42.62C86.6232 42.43 86.5832 42.265 86.5032 42.125C86.4265 41.985 86.3249 41.8783 86.1982 41.805C86.0715 41.7317 85.9349 41.695 85.7882 41.695C85.6415 41.695 85.5049 41.7317 85.3782 41.805C85.2515 41.875 85.1482 41.98 85.0682 42.12C84.9915 42.2567 84.9532 42.42 84.9532 42.61C84.9532 42.8 84.9915 42.9667 85.0682 43.11C85.1482 43.2533 85.2515 43.3633 85.3782 43.44C85.5082 43.5133 85.6449 43.55 85.7882 43.55C85.9349 43.55 86.0715 43.5133 86.1982 43.44C86.3249 43.3667 86.4265 43.26 86.5032 43.12C86.5832 42.9767 86.6232 42.81 86.6232 42.62ZM87.7069 42.62C87.7069 42.3367 87.7635 42.0883 87.8769 41.875C87.9935 41.6583 88.1535 41.4917 88.3569 41.375C88.5602 41.2583 88.7935 41.2 89.0569 41.2C89.3902 41.2 89.6652 41.28 89.8819 41.44C90.1019 41.5967 90.2502 41.8217 90.3269 42.115H89.7119C89.6619 41.9783 89.5819 41.8717 89.4719 41.795C89.3619 41.7183 89.2235 41.68 89.0569 41.68C88.8235 41.68 88.6369 41.7633 88.4969 41.93C88.3602 42.0933 88.2919 42.3233 88.2919 42.62C88.2919 42.9167 88.3602 43.1483 88.4969 43.315C88.6369 43.4817 88.8235 43.565 89.0569 43.565C89.3869 43.565 89.6052 43.42 89.7119 43.13H90.3269C90.2469 43.41 90.0969 43.6333 89.8769 43.8C89.6569 43.9633 89.3835 44.045 89.0569 44.045C88.7935 44.045 88.5602 43.9867 88.3569 43.87C88.1535 43.75 87.9935 43.5833 87.8769 43.37C87.7635 43.1533 87.7069 42.9033 87.7069 42.62ZM91.5099 41.71V43.235C91.5099 43.3383 91.5333 43.4133 91.5799 43.46C91.6299 43.5033 91.7133 43.525 91.8299 43.525H92.1799V44H91.7299C91.4733 44 91.2766 43.94 91.1399 43.82C91.0033 43.7 90.9349 43.505 90.9349 43.235V41.71H90.6099V41.245H90.9349V40.56H91.5099V41.245H92.1799V41.71H91.5099ZM92.9453 40.88C92.8419 40.88 92.7553 40.845 92.6853 40.775C92.6153 40.705 92.5803 40.6183 92.5803 40.515C92.5803 40.4117 92.6153 40.325 92.6853 40.255C92.7553 40.185 92.8419 40.15 92.9453 40.15C93.0453 40.15 93.1303 40.185 93.2003 40.255C93.2703 40.325 93.3053 40.4117 93.3053 40.515C93.3053 40.6183 93.2703 40.705 93.2003 40.775C93.1303 40.845 93.0453 40.88 92.9453 40.88ZM93.2253 41.245V44H92.6553V41.245H93.2253ZM94.9886 43.49L95.7686 41.245H96.3736L95.3236 44H94.6436L93.5986 41.245H94.2086L94.9886 43.49ZM97.0445 40.88C96.9412 40.88 96.8545 40.845 96.7845 40.775C96.7145 40.705 96.6795 40.6183 96.6795 40.515C96.6795 40.4117 96.7145 40.325 96.7845 40.255C96.8545 40.185 96.9412 40.15 97.0445 40.15C97.1445 40.15 97.2295 40.185 97.2995 40.255C97.3695 40.325 97.4045 40.4117 97.4045 40.515C97.4045 40.6183 97.3695 40.705 97.2995 40.775C97.2295 40.845 97.1445 40.88 97.0445 40.88ZM97.3245 41.245V44H96.7545V41.245H97.3245ZM98.6879 41.71V43.235C98.6879 43.3383 98.7112 43.4133 98.7579 43.46C98.8079 43.5033 98.8912 43.525 99.0079 43.525H99.3579V44H98.9079C98.6512 44 98.4545 43.94 98.3179 43.82C98.1812 43.7 98.1129 43.505 98.1129 43.235V41.71H97.7879V41.245H98.1129V40.56H98.6879V41.245H99.3579V41.71H98.6879ZM100.123 40.88C100.02 40.88 99.9332 40.845 99.8632 40.775C99.7932 40.705 99.7582 40.6183 99.7582 40.515C99.7582 40.4117 99.7932 40.325 99.8632 40.255C99.9332 40.185 100.02 40.15 100.123 40.15C100.223 40.15 100.308 40.185 100.378 40.255C100.448 40.325 100.483 40.4117 100.483 40.515C100.483 40.6183 100.448 40.705 100.378 40.775C100.308 40.845 100.223 40.88 100.123 40.88ZM100.403 41.245V44H99.8332V41.245H100.403ZM103.627 42.555C103.627 42.6583 103.62 42.7517 103.607 42.835H101.502C101.518 43.055 101.6 43.2317 101.747 43.365C101.893 43.4983 102.073 43.565 102.287 43.565C102.593 43.565 102.81 43.4367 102.937 43.18H103.552C103.468 43.4333 103.317 43.6417 103.097 43.805C102.88 43.965 102.61 44.045 102.287 44.045C102.023 44.045 101.787 43.9867 101.577 43.87C101.37 43.75 101.207 43.5833 101.087 43.37C100.97 43.1533 100.912 42.9033 100.912 42.62C100.912 42.3367 100.968 42.0883 101.082 41.875C101.198 41.6583 101.36 41.4917 101.567 41.375C101.777 41.2583 102.017 41.2 102.287 41.2C102.547 41.2 102.778 41.2567 102.982 41.37C103.185 41.4833 103.343 41.6433 103.457 41.85C103.57 42.0533 103.627 42.2883 103.627 42.555ZM103.032 42.375C103.028 42.165 102.953 41.9967 102.807 41.87C102.66 41.7433 102.478 41.68 102.262 41.68C102.065 41.68 101.897 41.7433 101.757 41.87C101.617 41.9933 101.533 42.1617 101.507 42.375H103.032ZM105.138 44.045C104.921 44.045 104.726 44.0067 104.553 43.93C104.383 43.85 104.248 43.7433 104.148 43.61C104.048 43.4733 103.994 43.3217 103.988 43.155H104.578C104.588 43.2717 104.643 43.37 104.743 43.45C104.846 43.5267 104.974 43.565 105.128 43.565C105.288 43.565 105.411 43.535 105.498 43.475C105.588 43.4117 105.633 43.3317 105.633 43.235C105.633 43.1317 105.583 43.055 105.483 43.005C105.386 42.955 105.231 42.9 105.018 42.84C104.811 42.7833 104.643 42.7283 104.513 42.675C104.383 42.6217 104.269 42.54 104.173 42.43C104.079 42.32 104.033 42.175 104.033 41.995C104.033 41.8483 104.076 41.715 104.163 41.595C104.249 41.4717 104.373 41.375 104.533 41.305C104.696 41.235 104.883 41.2 105.093 41.2C105.406 41.2 105.658 41.28 105.848 41.44C106.041 41.5967 106.144 41.8117 106.158 42.085H105.588C105.578 41.9617 105.528 41.8633 105.438 41.79C105.348 41.7167 105.226 41.68 105.073 41.68C104.923 41.68 104.808 41.7083 104.728 41.765C104.648 41.8217 104.608 41.8967 104.608 41.99C104.608 42.0633 104.634 42.125 104.688 42.175C104.741 42.225 104.806 42.265 104.883 42.295C104.959 42.3217 105.073 42.3567 105.223 42.4C105.423 42.4533 105.586 42.5083 105.713 42.565C105.843 42.6183 105.954 42.6983 106.048 42.805C106.141 42.9117 106.189 43.0533 106.193 43.23C106.193 43.3867 106.149 43.5267 106.063 43.65C105.976 43.7733 105.853 43.87 105.693 43.94C105.536 44.01 105.351 44.045 105.138 44.045ZM109.202 44.045C108.942 44.045 108.707 43.9867 108.497 43.87C108.287 43.75 108.122 43.5833 108.002 43.37C107.882 43.1533 107.822 42.9033 107.822 42.62C107.822 42.34 107.884 42.0917 108.007 41.875C108.131 41.6583 108.299 41.4917 108.512 41.375C108.726 41.2583 108.964 41.2 109.227 41.2C109.491 41.2 109.729 41.2583 109.942 41.375C110.156 41.4917 110.324 41.6583 110.447 41.875C110.571 42.0917 110.632 42.34 110.632 42.62C110.632 42.9 110.569 43.1483 110.442 43.365C110.316 43.5817 110.142 43.75 109.922 43.87C109.706 43.9867 109.466 44.045 109.202 44.045ZM109.202 43.55C109.349 43.55 109.486 43.515 109.612 43.445C109.742 43.375 109.847 43.27 109.927 43.13C110.007 42.99 110.047 42.82 110.047 42.62C110.047 42.42 110.009 42.2517 109.932 42.115C109.856 41.975 109.754 41.87 109.627 41.8C109.501 41.73 109.364 41.695 109.217 41.695C109.071 41.695 108.934 41.73 108.807 41.8C108.684 41.87 108.586 41.975 108.512 42.115C108.439 42.2517 108.402 42.42 108.402 42.62C108.402 42.9167 108.477 43.1467 108.627 43.31C108.781 43.47 108.972 43.55 109.202 43.55ZM112.536 41.2C112.752 41.2 112.946 41.245 113.116 41.335C113.289 41.425 113.424 41.5583 113.521 41.735C113.617 41.9117 113.666 42.125 113.666 42.375V44H113.101V42.46C113.101 42.2133 113.039 42.025 112.916 41.895C112.792 41.7617 112.624 41.695 112.411 41.695C112.197 41.695 112.027 41.7617 111.901 41.895C111.777 42.025 111.716 42.2133 111.716 42.46V44H111.146V41.245H111.716V41.56C111.809 41.4467 111.927 41.3583 112.071 41.295C112.217 41.2317 112.372 41.2 112.536 41.2ZM118.072 41.245L116.382 45.295H115.792L116.352 43.955L115.267 41.245H115.902L116.677 43.345L117.482 41.245H118.072ZM119.647 44.045C119.387 44.045 119.152 43.9867 118.942 43.87C118.732 43.75 118.567 43.5833 118.447 43.37C118.327 43.1533 118.267 42.9033 118.267 42.62C118.267 42.34 118.328 42.0917 118.452 41.875C118.575 41.6583 118.743 41.4917 118.957 41.375C119.17 41.2583 119.408 41.2 119.672 41.2C119.935 41.2 120.173 41.2583 120.387 41.375C120.6 41.4917 120.768 41.6583 120.892 41.875C121.015 42.0917 121.077 42.34 121.077 42.62C121.077 42.9 121.013 43.1483 120.887 43.365C120.76 43.5817 120.587 43.75 120.367 43.87C120.15 43.9867 119.91 44.045 119.647 44.045ZM119.647 43.55C119.793 43.55 119.93 43.515 120.057 43.445C120.187 43.375 120.292 43.27 120.372 43.13C120.452 42.99 120.492 42.82 120.492 42.62C120.492 42.42 120.453 42.2517 120.377 42.115C120.3 41.975 120.198 41.87 120.072 41.8C119.945 41.73 119.808 41.695 119.662 41.695C119.515 41.695 119.378 41.73 119.252 41.8C119.128 41.87 119.03 41.975 118.957 42.115C118.883 42.2517 118.847 42.42 118.847 42.62C118.847 42.9167 118.922 43.1467 119.072 43.31C119.225 43.47 119.417 43.55 119.647 43.55ZM124.085 41.245V44H123.515V43.675C123.425 43.7883 123.307 43.8783 123.16 43.945C123.017 44.0083 122.864 44.04 122.7 44.04C122.484 44.04 122.289 43.995 122.115 43.905C121.945 43.815 121.81 43.6817 121.71 43.505C121.614 43.3283 121.565 43.115 121.565 42.865V41.245H122.13V42.78C122.13 43.0267 122.192 43.2167 122.315 43.35C122.439 43.48 122.607 43.545 122.82 43.545C123.034 43.545 123.202 43.48 123.325 43.35C123.452 43.2167 123.515 43.0267 123.515 42.78V41.245H124.085ZM125.357 41.645C125.441 41.505 125.551 41.3967 125.687 41.32C125.827 41.24 125.992 41.2 126.182 41.2V41.79H126.037C125.814 41.79 125.644 41.8467 125.527 41.96C125.414 42.0733 125.357 42.27 125.357 42.55V44H124.787V41.245H125.357V41.645ZM128.475 41.65C128.572 41.5233 128.703 41.4167 128.87 41.33C129.037 41.2433 129.225 41.2 129.435 41.2C129.675 41.2 129.893 41.26 130.09 41.38C130.29 41.4967 130.447 41.6617 130.56 41.875C130.673 42.0883 130.73 42.3333 130.73 42.61C130.73 42.8867 130.673 43.135 130.56 43.355C130.447 43.5717 130.29 43.7417 130.09 43.865C129.893 43.985 129.675 44.045 129.435 44.045C129.225 44.045 129.038 44.0033 128.875 43.92C128.712 43.8333 128.578 43.7267 128.475 43.6V45.31H127.905V41.245H128.475V41.65ZM130.15 42.61C130.15 42.42 130.11 42.2567 130.03 42.12C129.953 41.98 129.85 41.875 129.72 41.805C129.593 41.7317 129.457 41.695 129.31 41.695C129.167 41.695 129.03 41.7317 128.9 41.805C128.773 41.8783 128.67 41.985 128.59 42.125C128.513 42.265 128.475 42.43 128.475 42.62C128.475 42.81 128.513 42.9767 128.59 43.12C128.67 43.26 128.773 43.3667 128.9 43.44C129.03 43.5133 129.167 43.55 129.31 43.55C129.457 43.55 129.593 43.5133 129.72 43.44C129.85 43.3633 129.953 43.2533 130.03 43.11C130.11 42.9667 130.15 42.8 130.15 42.61ZM131.054 42.61C131.054 42.3333 131.11 42.0883 131.224 41.875C131.34 41.6617 131.497 41.4967 131.694 41.38C131.894 41.26 132.114 41.2 132.354 41.2C132.57 41.2 132.759 41.2433 132.919 41.33C133.082 41.4133 133.212 41.5183 133.309 41.645V41.245H133.884V44H133.309V43.59C133.212 43.72 133.08 43.8283 132.914 43.915C132.747 44.0017 132.557 44.045 132.344 44.045C132.107 44.045 131.89 43.985 131.694 43.865C131.497 43.7417 131.34 43.5717 131.224 43.355C131.11 43.135 131.054 42.8867 131.054 42.61ZM133.309 42.62C133.309 42.43 133.269 42.265 133.189 42.125C133.112 41.985 133.01 41.8783 132.884 41.805C132.757 41.7317 132.62 41.695 132.474 41.695C132.327 41.695 132.19 41.7317 132.064 41.805C131.937 41.875 131.834 41.98 131.754 42.12C131.677 42.2567 131.639 42.42 131.639 42.61C131.639 42.8 131.677 42.9667 131.754 43.11C131.834 43.2533 131.937 43.3633 132.064 43.44C132.194 43.5133 132.33 43.55 132.474 43.55C132.62 43.55 132.757 43.5133 132.884 43.44C133.01 43.3667 133.112 43.26 133.189 43.12C133.269 42.9767 133.309 42.81 133.309 42.62ZM135.692 41.2C135.906 41.2 136.094 41.2433 136.257 41.33C136.424 41.4133 136.554 41.5183 136.647 41.645V41.245H137.222V44.045C137.222 44.2983 137.169 44.5233 137.062 44.72C136.956 44.92 136.801 45.0767 136.597 45.19C136.397 45.3033 136.157 45.36 135.877 45.36C135.504 45.36 135.194 45.2717 134.947 45.095C134.701 44.9217 134.561 44.685 134.527 44.385H135.092C135.136 44.5283 135.227 44.6433 135.367 44.73C135.511 44.82 135.681 44.865 135.877 44.865C136.107 44.865 136.292 44.795 136.432 44.655C136.576 44.515 136.647 44.3117 136.647 44.045V43.585C136.551 43.715 136.419 43.825 136.252 43.915C136.089 44.0017 135.902 44.045 135.692 44.045C135.452 44.045 135.232 43.985 135.032 43.865C134.836 43.7417 134.679 43.5717 134.562 43.355C134.449 43.135 134.392 42.8867 134.392 42.61C134.392 42.3333 134.449 42.0883 134.562 41.875C134.679 41.6617 134.836 41.4967 135.032 41.38C135.232 41.26 135.452 41.2 135.692 41.2ZM136.647 42.62C136.647 42.43 136.607 42.265 136.527 42.125C136.451 41.985 136.349 41.8783 136.222 41.805C136.096 41.7317 135.959 41.695 135.812 41.695C135.666 41.695 135.529 41.7317 135.402 41.805C135.276 41.875 135.172 41.98 135.092 42.12C135.016 42.2567 134.977 42.42 134.977 42.61C134.977 42.8 135.016 42.9667 135.092 43.11C135.172 43.2533 135.276 43.3633 135.402 43.44C135.532 43.5133 135.669 43.55 135.812 43.55C135.959 43.55 136.096 43.5133 136.222 43.44C136.349 43.3667 136.451 43.26 136.527 43.12C136.607 42.9767 136.647 42.81 136.647 42.62ZM140.446 42.555C140.446 42.6583 140.439 42.7517 140.426 42.835H138.321C138.338 43.055 138.419 43.2317 138.566 43.365C138.713 43.4983 138.893 43.565 139.106 43.565C139.413 43.565 139.629 43.4367 139.756 43.18H140.371C140.288 43.4333 140.136 43.6417 139.916 43.805C139.699 43.965 139.429 44.045 139.106 44.045C138.843 44.045 138.606 43.9867 138.396 43.87C138.189 43.75 138.026 43.5833 137.906 43.37C137.789 43.1533 137.731 42.9033 137.731 42.62C137.731 42.3367 137.788 42.0883 137.901 41.875C138.018 41.6583 138.179 41.4917 138.386 41.375C138.596 41.2583 138.836 41.2 139.106 41.2C139.366 41.2 139.598 41.2567 139.801 41.37C140.004 41.4833 140.163 41.6433 140.276 41.85C140.389 42.0533 140.446 42.2883 140.446 42.555ZM139.851 42.375C139.848 42.165 139.773 41.9967 139.626 41.87C139.479 41.7433 139.298 41.68 139.081 41.68C138.884 41.68 138.716 41.7433 138.576 41.87C138.436 41.9933 138.353 42.1617 138.326 42.375H139.851ZM143.361 41.71H142.851V44H142.276V41.71H141.951V41.245H142.276V41.05C142.276 40.7333 142.359 40.5033 142.526 40.36C142.696 40.2133 142.961 40.14 143.321 40.14V40.615C143.148 40.615 143.026 40.6483 142.956 40.715C142.886 40.7783 142.851 40.89 142.851 41.05V41.245H143.361V41.71ZM145.011 44.045C144.751 44.045 144.516 43.9867 144.306 43.87C144.096 43.75 143.931 43.5833 143.811 43.37C143.691 43.1533 143.631 42.9033 143.631 42.62C143.631 42.34 143.693 42.0917 143.816 41.875C143.939 41.6583 144.108 41.4917 144.321 41.375C144.534 41.2583 144.773 41.2 145.036 41.2C145.299 41.2 145.538 41.2583 145.751 41.375C145.964 41.4917 146.133 41.6583 146.256 41.875C146.379 42.0917 146.441 42.34 146.441 42.62C146.441 42.9 146.378 43.1483 146.251 43.365C146.124 43.5817 145.951 43.75 145.731 43.87C145.514 43.9867 145.274 44.045 145.011 44.045ZM145.011 43.55C145.158 43.55 145.294 43.515 145.421 43.445C145.551 43.375 145.656 43.27 145.736 43.13C145.816 42.99 145.856 42.82 145.856 42.62C145.856 42.42 145.818 42.2517 145.741 42.115C145.664 41.975 145.563 41.87 145.436 41.8C145.309 41.73 145.173 41.695 145.026 41.695C144.879 41.695 144.743 41.73 144.616 41.8C144.493 41.87 144.394 41.975 144.321 42.115C144.248 42.2517 144.211 42.42 144.211 42.62C144.211 42.9167 144.286 43.1467 144.436 43.31C144.589 43.47 144.781 43.55 145.011 43.55ZM147.524 41.645C147.608 41.505 147.718 41.3967 147.854 41.32C147.994 41.24 148.159 41.2 148.349 41.2V41.79H148.204C147.981 41.79 147.811 41.8467 147.694 41.96C147.581 42.0733 147.524 42.27 147.524 42.55V44H146.954V41.245H147.524V41.645ZM52.945 45.3V49H52.375V45.3H52.945ZM53.4534 47.61C53.4534 47.3333 53.51 47.0883 53.6234 46.875C53.74 46.6617 53.8967 46.4967 54.0934 46.38C54.2934 46.26 54.5134 46.2 54.7534 46.2C54.97 46.2 55.1584 46.2433 55.3184 46.33C55.4817 46.4133 55.6117 46.5183 55.7084 46.645V46.245H56.2834V49H55.7084V48.59C55.6117 48.72 55.48 48.8283 55.3134 48.915C55.1467 49.0017 54.9567 49.045 54.7434 49.045C54.5067 49.045 54.29 48.985 54.0934 48.865C53.8967 48.7417 53.74 48.5717 53.6234 48.355C53.51 48.135 53.4534 47.8867 53.4534 47.61ZM55.7084 47.62C55.7084 47.43 55.6684 47.265 55.5884 47.125C55.5117 46.985 55.41 46.8783 55.2834 46.805C55.1567 46.7317 55.02 46.695 54.8734 46.695C54.7267 46.695 54.59 46.7317 54.4634 46.805C54.3367 46.875 54.2334 46.98 54.1534 47.12C54.0767 47.2567 54.0384 47.42 54.0384 47.61C54.0384 47.8 54.0767 47.9667 54.1534 48.11C54.2334 48.2533 54.3367 48.3633 54.4634 48.44C54.5934 48.5133 54.73 48.55 54.8734 48.55C55.02 48.55 55.1567 48.5133 55.2834 48.44C55.41 48.3667 55.5117 48.26 55.5884 48.12C55.6684 47.9767 55.7084 47.81 55.7084 47.62ZM56.792 47.62C56.792 47.3367 56.8487 47.0883 56.962 46.875C57.0787 46.6583 57.2387 46.4917 57.442 46.375C57.6454 46.2583 57.8787 46.2 58.142 46.2C58.4754 46.2 58.7504 46.28 58.967 46.44C59.187 46.5967 59.3354 46.8217 59.412 47.115H58.797C58.747 46.9783 58.667 46.8717 58.557 46.795C58.447 46.7183 58.3087 46.68 58.142 46.68C57.9087 46.68 57.722 46.7633 57.582 46.93C57.4454 47.0933 57.377 47.3233 57.377 47.62C57.377 47.9167 57.4454 48.1483 57.582 48.315C57.722 48.4817 57.9087 48.565 58.142 48.565C58.472 48.565 58.6904 48.42 58.797 48.13H59.412C59.332 48.41 59.182 48.6333 58.962 48.8C58.742 48.9633 58.4687 49.045 58.142 49.045C57.8787 49.045 57.6454 48.9867 57.442 48.87C57.2387 48.75 57.0787 48.5833 56.962 48.37C56.8487 48.1533 56.792 47.9033 56.792 47.62ZM60.5951 46.71V48.235C60.5951 48.3383 60.6184 48.4133 60.6651 48.46C60.7151 48.5033 60.7984 48.525 60.9151 48.525H61.2651V49H60.8151C60.5584 49 60.3617 48.94 60.2251 48.82C60.0884 48.7 60.0201 48.505 60.0201 48.235V46.71H59.6951V46.245H60.0201V45.56H60.5951V46.245H61.2651V46.71H60.5951ZM62.7993 47.61C62.7993 47.3333 62.8559 47.0883 62.9693 46.875C63.0859 46.6617 63.2426 46.4967 63.4393 46.38C63.6393 46.26 63.8609 46.2 64.1043 46.2C64.2843 46.2 64.4609 46.24 64.6343 46.32C64.8109 46.3967 64.9509 46.5 65.0543 46.63V45.3H65.6293V49H65.0543V48.585C64.9609 48.7183 64.8309 48.8283 64.6643 48.915C64.5009 49.0017 64.3126 49.045 64.0993 49.045C63.8593 49.045 63.6393 48.985 63.4393 48.865C63.2426 48.7417 63.0859 48.5717 62.9693 48.355C62.8559 48.135 62.7993 47.8867 62.7993 47.61ZM65.0543 47.62C65.0543 47.43 65.0143 47.265 64.9343 47.125C64.8576 46.985 64.7559 46.8783 64.6293 46.805C64.5026 46.7317 64.3659 46.695 64.2193 46.695C64.0726 46.695 63.9359 46.7317 63.8093 46.805C63.6826 46.875 63.5793 46.98 63.4993 47.12C63.4226 47.2567 63.3843 47.42 63.3843 47.61C63.3843 47.8 63.4226 47.9667 63.4993 48.11C63.5793 48.2533 63.6826 48.3633 63.8093 48.44C63.9393 48.5133 64.0759 48.55 64.2193 48.55C64.3659 48.55 64.5026 48.5133 64.6293 48.44C64.7559 48.3667 64.8576 48.26 64.9343 48.12C65.0143 47.9767 65.0543 47.81 65.0543 47.62ZM66.1379 47.61C66.1379 47.3333 66.1946 47.0883 66.3079 46.875C66.4246 46.6617 66.5813 46.4967 66.7779 46.38C66.9779 46.26 67.1979 46.2 67.4379 46.2C67.6546 46.2 67.8429 46.2433 68.0029 46.33C68.1663 46.4133 68.2963 46.5183 68.3929 46.645V46.245H68.9679V49H68.3929V48.59C68.2963 48.72 68.1646 48.8283 67.9979 48.915C67.8313 49.0017 67.6413 49.045 67.4279 49.045C67.1913 49.045 66.9746 48.985 66.7779 48.865C66.5813 48.7417 66.4246 48.5717 66.3079 48.355C66.1946 48.135 66.1379 47.8867 66.1379 47.61ZM68.3929 47.62C68.3929 47.43 68.3529 47.265 68.2729 47.125C68.1963 46.985 68.0946 46.8783 67.9679 46.805C67.8413 46.7317 67.7046 46.695 67.5579 46.695C67.4113 46.695 67.2746 46.7317 67.1479 46.805C67.0213 46.875 66.9179 46.98 66.8379 47.12C66.7613 47.2567 66.7229 47.42 66.7229 47.61C66.7229 47.8 66.7613 47.9667 66.8379 48.11C66.9179 48.2533 67.0213 48.3633 67.1479 48.44C67.2779 48.5133 67.4146 48.55 67.5579 48.55C67.7046 48.55 67.8413 48.5133 67.9679 48.44C68.0946 48.3667 68.1963 48.26 68.2729 48.12C68.3529 47.9767 68.3929 47.81 68.3929 47.62ZM72.1466 46.245L70.4566 50.295H69.8666L70.4266 48.955L69.3416 46.245H69.9766L70.7516 48.345L71.5566 46.245H72.1466Z" fill="#626261"/>
<rect x="49" y="66" width="21" height="93" fill="url(#paint1_linear_25:41)"/>
<rect x="70" y="105" width="21" height="54" fill="url(#paint2_linear_25:41)"/>
<path d="M59.654 59.513L57.708 64H56.903L58.87 59.597H56.28V58.918H59.654V59.513ZM60.267 61.382C60.267 60.5747 60.4023 59.9447 60.673 59.492C60.9483 59.0347 61.4197 58.806 62.087 58.806C62.7543 58.806 63.2233 59.0347 63.494 59.492C63.7693 59.9447 63.907 60.5747 63.907 61.382C63.907 62.1987 63.7693 62.838 63.494 63.3C63.2233 63.7573 62.7543 63.986 62.087 63.986C61.4197 63.986 60.9483 63.7573 60.673 63.3C60.4023 62.838 60.267 62.1987 60.267 61.382ZM63.123 61.382C63.123 61.004 63.0973 60.6843 63.046 60.423C62.9993 60.1617 62.9013 59.9493 62.752 59.786C62.6027 59.618 62.381 59.534 62.087 59.534C61.793 59.534 61.5713 59.618 61.422 59.786C61.2727 59.9493 61.1723 60.1617 61.121 60.423C61.0743 60.6843 61.051 61.004 61.051 61.382C61.051 61.774 61.0743 62.103 61.121 62.369C61.1677 62.635 61.2657 62.8497 61.415 63.013C61.569 63.1763 61.793 63.258 62.087 63.258C62.381 63.258 62.6027 63.1763 62.752 63.013C62.906 62.8497 63.0063 62.635 63.053 62.369C63.0997 62.103 63.123 61.774 63.123 61.382ZM64.5554 60.129C64.5554 59.7883 64.6534 59.5223 64.8494 59.331C65.05 59.135 65.3067 59.037 65.6194 59.037C65.932 59.037 66.1864 59.135 66.3824 59.331C66.583 59.5223 66.6834 59.7883 66.6834 60.129C66.6834 60.4697 66.583 60.738 66.3824 60.934C66.1864 61.13 65.932 61.228 65.6194 61.228C65.3067 61.228 65.05 61.13 64.8494 60.934C64.6534 60.738 64.5554 60.4697 64.5554 60.129ZM68.8254 59.128L66.0324 64H65.2484L68.0414 59.128H68.8254ZM65.6194 59.52C65.3254 59.52 65.1784 59.723 65.1784 60.129C65.1784 60.5397 65.3254 60.745 65.6194 60.745C65.7594 60.745 65.8667 60.696 65.9414 60.598C66.0207 60.4953 66.0604 60.339 66.0604 60.129C66.0604 59.723 65.9134 59.52 65.6194 59.52ZM67.4044 62.992C67.4044 62.6513 67.5024 62.3853 67.6984 62.194C67.899 61.998 68.1557 61.9 68.4684 61.9C68.7764 61.9 69.0284 61.998 69.2244 62.194C69.425 62.3853 69.5254 62.6513 69.5254 62.992C69.5254 63.3327 69.425 63.601 69.2244 63.797C69.0284 63.993 68.7764 64.091 68.4684 64.091C68.1557 64.091 67.899 63.993 67.6984 63.797C67.5024 63.601 67.4044 63.3327 67.4044 62.992ZM68.4614 62.383C68.1674 62.383 68.0204 62.586 68.0204 62.992C68.0204 63.398 68.1674 63.601 68.4614 63.601C68.7554 63.601 68.9024 63.398 68.9024 62.992C68.9024 62.586 68.7554 62.383 68.4614 62.383Z" fill="#7723FF"/>
<path d="M52.1768 60.8232C52.0791 60.7256 51.9209 60.7256 51.8232 60.8232L50.2322 62.4142C50.1346 62.5118 50.1346 62.6701 50.2322 62.7678C50.3299 62.8654 50.4882 62.8654 50.5858 62.7678L52 61.3536L53.4142 62.7678C53.5118 62.8654 53.6701 62.8654 53.7678 62.7678C53.8654 62.6701 53.8654 62.5118 53.7678 62.4142L52.1768 60.8232ZM52.25 72L52.25 61L51.75 61L51.75 72L52.25 72Z" fill="#7723FF"/>
<path d="M77.406 99.157C77.434 98.723 77.5997 98.3847 77.903 98.142C78.211 97.8993 78.603 97.778 79.079 97.778C79.4057 97.778 79.688 97.8363 79.926 97.953C80.164 98.0697 80.3437 98.2283 80.465 98.429C80.5863 98.6297 80.647 98.856 80.647 99.108C80.647 99.3973 80.57 99.6447 80.416 99.85C80.262 100.055 80.0777 100.193 79.863 100.263V100.291C80.1383 100.375 80.353 100.529 80.507 100.753C80.661 100.972 80.738 101.255 80.738 101.6C80.738 101.875 80.675 102.12 80.549 102.335C80.423 102.55 80.2363 102.72 79.989 102.846C79.7417 102.967 79.4453 103.028 79.1 103.028C78.596 103.028 78.1807 102.9 77.854 102.643C77.532 102.382 77.3593 102.008 77.336 101.523H78.106C78.1247 101.77 78.2203 101.973 78.393 102.132C78.5657 102.286 78.799 102.363 79.093 102.363C79.3777 102.363 79.597 102.286 79.751 102.132C79.905 101.973 79.982 101.77 79.982 101.523C79.982 101.196 79.877 100.965 79.667 100.83C79.4617 100.69 79.1443 100.62 78.715 100.62H78.533V99.962H78.722C79.1 99.9573 79.387 99.8943 79.583 99.773C79.7837 99.6517 79.884 99.4603 79.884 99.199C79.884 98.975 79.8117 98.7977 79.667 98.667C79.5223 98.5317 79.317 98.464 79.051 98.464C78.7897 98.464 78.5867 98.5317 78.442 98.667C78.2973 98.7977 78.211 98.961 78.183 99.157H77.406ZM81.5062 100.382C81.5062 99.5747 81.6416 98.9447 81.9122 98.492C82.1876 98.0347 82.6589 97.806 83.3262 97.806C83.9936 97.806 84.4626 98.0347 84.7333 98.492C85.0086 98.9447 85.1463 99.5747 85.1463 100.382C85.1463 101.199 85.0086 101.838 84.7333 102.3C84.4626 102.757 83.9936 102.986 83.3262 102.986C82.6589 102.986 82.1876 102.757 81.9122 102.3C81.6416 101.838 81.5062 101.199 81.5062 100.382ZM84.3623 100.382C84.3623 100.004 84.3366 99.6843 84.2852 99.423C84.2386 99.1617 84.1406 98.9493 83.9912 98.786C83.8419 98.618 83.6202 98.534 83.3262 98.534C83.0322 98.534 82.8106 98.618 82.6612 98.786C82.5119 98.9493 82.4116 99.1617 82.3602 99.423C82.3136 99.6843 82.2902 100.004 82.2902 100.382C82.2902 100.774 82.3136 101.103 82.3602 101.369C82.4069 101.635 82.5049 101.85 82.6542 102.013C82.8082 102.176 83.0322 102.258 83.3262 102.258C83.6202 102.258 83.8419 102.176 83.9912 102.013C84.1452 101.85 84.2456 101.635 84.2923 101.369C84.3389 101.103 84.3623 100.774 84.3623 100.382ZM85.7946 99.129C85.7946 98.7883 85.8926 98.5223 86.0886 98.331C86.2893 98.135 86.546 98.037 86.8586 98.037C87.1713 98.037 87.4256 98.135 87.6216 98.331C87.8223 98.5223 87.9226 98.7883 87.9226 99.129C87.9226 99.4697 87.8223 99.738 87.6216 99.934C87.4256 100.13 87.1713 100.228 86.8586 100.228C86.546 100.228 86.2893 100.13 86.0886 99.934C85.8926 99.738 85.7946 99.4697 85.7946 99.129ZM90.0646 98.128L87.2716 103H86.4876L89.2806 98.128H90.0646ZM86.8586 98.52C86.5646 98.52 86.4176 98.723 86.4176 99.129C86.4176 99.5397 86.5646 99.745 86.8586 99.745C86.9986 99.745 87.106 99.696 87.1806 99.598C87.26 99.4953 87.2996 99.339 87.2996 99.129C87.2996 98.723 87.1526 98.52 86.8586 98.52ZM88.6436 101.992C88.6436 101.651 88.7416 101.385 88.9376 101.194C89.1383 100.998 89.395 100.9 89.7076 100.9C90.0156 100.9 90.2676 100.998 90.4636 101.194C90.6643 101.385 90.7646 101.651 90.7646 101.992C90.7646 102.333 90.6643 102.601 90.4636 102.797C90.2676 102.993 90.0156 103.091 89.7076 103.091C89.395 103.091 89.1383 102.993 88.9376 102.797C88.7416 102.601 88.6436 102.333 88.6436 101.992ZM89.7006 101.383C89.4066 101.383 89.2596 101.586 89.2596 101.992C89.2596 102.398 89.4066 102.601 89.7006 102.601C89.9946 102.601 90.1416 102.398 90.1416 101.992C90.1416 101.586 89.9946 101.383 89.7006 101.383Z" fill="#7723FF"/>
<path d="M75.1768 97.8232C75.0791 97.7256 74.9209 97.7256 74.8232 97.8232L73.2322 99.4142C73.1346 99.5118 73.1346 99.6701 73.2322 99.7678C73.3299 99.8654 73.4882 99.8654 73.5858 99.7678L75 98.3536L76.4142 99.7678C76.5118 99.8654 76.6701 99.8654 76.7678 99.7678C76.8654 99.6701 76.8654 99.5118 76.7678 99.4142L75.1768 97.8232ZM75.25 109L75.25 98L74.75 98L74.75 109L75.25 109Z" fill="#7723FF"/>
<rect x="98" y="89" width="21" height="70" fill="url(#paint3_linear_25:41)"/>
<rect x="119" y="80" width="21" height="79" fill="url(#paint4_linear_25:41)"/>
<path d="M107.71 81.583H105.365V82.976C105.463 82.8453 105.608 82.7357 105.799 82.647C105.995 82.5583 106.203 82.514 106.422 82.514C106.814 82.514 107.131 82.598 107.374 82.766C107.621 82.934 107.796 83.1463 107.899 83.403C108.006 83.6597 108.06 83.9303 108.06 84.215C108.06 84.5603 107.992 84.8683 107.857 85.139C107.726 85.405 107.528 85.615 107.262 85.769C107.001 85.923 106.679 86 106.296 86C105.787 86 105.379 85.874 105.071 85.622C104.763 85.37 104.579 85.0363 104.518 84.621H105.295C105.346 84.8403 105.461 85.0153 105.638 85.146C105.815 85.272 106.037 85.335 106.303 85.335C106.634 85.335 106.882 85.2347 107.045 85.034C107.213 84.8333 107.297 84.5673 107.297 84.236C107.297 83.9 107.213 83.6433 107.045 83.466C106.877 83.284 106.63 83.193 106.303 83.193C106.074 83.193 105.881 83.2513 105.722 83.368C105.568 83.48 105.456 83.634 105.386 83.83H104.63V80.883H107.71V81.583ZM108.821 83.382C108.821 82.5747 108.956 81.9447 109.227 81.492C109.502 81.0347 109.973 80.806 110.641 80.806C111.308 80.806 111.777 81.0347 112.048 81.492C112.323 81.9447 112.461 82.5747 112.461 83.382C112.461 84.1987 112.323 84.838 112.048 85.3C111.777 85.7573 111.308 85.986 110.641 85.986C109.973 85.986 109.502 85.7573 109.227 85.3C108.956 84.838 108.821 84.1987 108.821 83.382ZM111.677 83.382C111.677 83.004 111.651 82.6843 111.6 82.423C111.553 82.1617 111.455 81.9493 111.306 81.786C111.156 81.618 110.935 81.534 110.641 81.534C110.347 81.534 110.125 81.618 109.976 81.786C109.826 81.9493 109.726 82.1617 109.675 82.423C109.628 82.6843 109.605 83.004 109.605 83.382C109.605 83.774 109.628 84.103 109.675 84.369C109.721 84.635 109.819 84.8497 109.969 85.013C110.123 85.1763 110.347 85.258 110.641 85.258C110.935 85.258 111.156 85.1763 111.306 85.013C111.46 84.8497 111.56 84.635 111.607 84.369C111.653 84.103 111.677 83.774 111.677 83.382ZM113.109 82.129C113.109 81.7883 113.207 81.5223 113.403 81.331C113.604 81.135 113.86 81.037 114.173 81.037C114.486 81.037 114.74 81.135 114.936 81.331C115.137 81.5223 115.237 81.7883 115.237 82.129C115.237 82.4697 115.137 82.738 114.936 82.934C114.74 83.13 114.486 83.228 114.173 83.228C113.86 83.228 113.604 83.13 113.403 82.934C113.207 82.738 113.109 82.4697 113.109 82.129ZM117.379 81.128L114.586 86H113.802L116.595 81.128H117.379ZM114.173 81.52C113.879 81.52 113.732 81.723 113.732 82.129C113.732 82.5397 113.879 82.745 114.173 82.745C114.313 82.745 114.42 82.696 114.495 82.598C114.574 82.4953 114.614 82.339 114.614 82.129C114.614 81.723 114.467 81.52 114.173 81.52ZM115.958 84.992C115.958 84.6513 116.056 84.3853 116.252 84.194C116.453 83.998 116.709 83.9 117.022 83.9C117.33 83.9 117.582 83.998 117.778 84.194C117.979 84.3853 118.079 84.6513 118.079 84.992C118.079 85.3327 117.979 85.601 117.778 85.797C117.582 85.993 117.33 86.091 117.022 86.091C116.709 86.091 116.453 85.993 116.252 85.797C116.056 85.601 115.958 85.3327 115.958 84.992ZM117.015 84.383C116.721 84.383 116.574 84.586 116.574 84.992C116.574 85.398 116.721 85.601 117.015 85.601C117.309 85.601 117.456 85.398 117.456 84.992C117.456 84.586 117.309 84.383 117.015 84.383Z" fill="#FFB423"/>
<path d="M102.177 80.8232C102.079 80.7256 101.921 80.7256 101.823 80.8232L100.232 82.4142C100.135 82.5118 100.135 82.6701 100.232 82.7678C100.33 82.8654 100.488 82.8654 100.586 82.7678L102 81.3536L103.414 82.7678C103.512 82.8654 103.67 82.8654 103.768 82.7678C103.865 82.6701 103.865 82.5118 103.768 82.4142L102.177 80.8232ZM102.25 92L102.25 81L101.75 81L101.75 92L102.25 92Z" fill="#FFB423"/>
<path d="M126.164 74.08C126.113 73.8653 126.019 73.7043 125.884 73.597C125.749 73.4897 125.56 73.436 125.317 73.436C124.948 73.436 124.673 73.5783 124.491 73.863C124.309 74.143 124.213 74.6097 124.204 75.263C124.325 75.0577 124.503 74.899 124.736 74.787C124.969 74.675 125.221 74.619 125.492 74.619C125.8 74.619 126.071 74.6867 126.304 74.822C126.542 74.9527 126.726 75.144 126.857 75.396C126.992 75.648 127.06 75.949 127.06 76.299C127.06 76.6257 126.995 76.9173 126.864 77.174C126.738 77.4307 126.549 77.6337 126.297 77.783C126.045 77.9277 125.742 78 125.387 78C124.906 78 124.528 77.895 124.253 77.685C123.982 77.4703 123.791 77.1693 123.679 76.782C123.572 76.3947 123.518 75.9117 123.518 75.333C123.518 73.625 124.12 72.771 125.324 72.771C125.791 72.771 126.157 72.897 126.423 73.149C126.694 73.401 126.852 73.7113 126.899 74.08H126.164ZM125.317 75.291C125.032 75.291 124.79 75.3773 124.589 75.55C124.393 75.718 124.295 75.963 124.295 76.285C124.295 76.607 124.386 76.8637 124.568 77.055C124.755 77.2417 125.014 77.335 125.345 77.335C125.639 77.335 125.87 77.244 126.038 77.062C126.211 76.88 126.297 76.6373 126.297 76.334C126.297 76.0167 126.213 75.7647 126.045 75.578C125.882 75.3867 125.639 75.291 125.317 75.291ZM131.131 73.583H128.786V74.976C128.884 74.8453 129.029 74.7357 129.22 74.647C129.416 74.5583 129.624 74.514 129.843 74.514C130.235 74.514 130.553 74.598 130.795 74.766C131.043 74.934 131.218 75.1463 131.32 75.403C131.428 75.6597 131.481 75.9303 131.481 76.215C131.481 76.5603 131.414 76.8683 131.278 77.139C131.148 77.405 130.949 77.615 130.683 77.769C130.422 77.923 130.1 78 129.717 78C129.209 78 128.8 77.874 128.492 77.622C128.184 77.37 128 77.0363 127.939 76.621H128.716C128.768 76.8403 128.882 77.0153 129.059 77.146C129.237 77.272 129.458 77.335 129.724 77.335C130.056 77.335 130.303 77.2347 130.466 77.034C130.634 76.8333 130.718 76.5673 130.718 76.236C130.718 75.9 130.634 75.6433 130.466 75.466C130.298 75.284 130.051 75.193 129.724 75.193C129.496 75.193 129.302 75.2513 129.143 75.368C128.989 75.48 128.877 75.634 128.807 75.83H128.051V72.883H131.131V73.583ZM132.116 74.129C132.116 73.7883 132.214 73.5223 132.41 73.331C132.611 73.135 132.867 73.037 133.18 73.037C133.493 73.037 133.747 73.135 133.943 73.331C134.144 73.5223 134.244 73.7883 134.244 74.129C134.244 74.4697 134.144 74.738 133.943 74.934C133.747 75.13 133.493 75.228 133.18 75.228C132.867 75.228 132.611 75.13 132.41 74.934C132.214 74.738 132.116 74.4697 132.116 74.129ZM136.386 73.128L133.593 78H132.809L135.602 73.128H136.386ZM133.18 73.52C132.886 73.52 132.739 73.723 132.739 74.129C132.739 74.5397 132.886 74.745 133.18 74.745C133.32 74.745 133.427 74.696 133.502 74.598C133.581 74.4953 133.621 74.339 133.621 74.129C133.621 73.723 133.474 73.52 133.18 73.52ZM134.965 76.992C134.965 76.6513 135.063 76.3853 135.259 76.194C135.46 75.998 135.716 75.9 136.029 75.9C136.337 75.9 136.589 75.998 136.785 76.194C136.986 76.3853 137.086 76.6513 137.086 76.992C137.086 77.3327 136.986 77.601 136.785 77.797C136.589 77.993 136.337 78.091 136.029 78.091C135.716 78.091 135.46 77.993 135.259 77.797C135.063 77.601 134.965 77.3327 134.965 76.992ZM136.022 76.383C135.728 76.383 135.581 76.586 135.581 76.992C135.581 77.398 135.728 77.601 136.022 77.601C136.316 77.601 136.463 77.398 136.463 76.992C136.463 76.586 136.316 76.383 136.022 76.383Z" fill="#FFB423"/>
<path d="M121.177 72.8232C121.079 72.7256 120.921 72.7256 120.823 72.8232L119.232 74.4142C119.135 74.5118 119.135 74.6701 119.232 74.7678C119.33 74.8654 119.488 74.8654 119.586 74.7678L121 73.3536L122.414 74.7678C122.512 74.8654 122.67 74.8654 122.768 74.7678C122.865 74.6701 122.865 74.5118 122.768 74.4142L121.177 72.8232ZM121.25 84L121.25 73L120.75 73L120.75 84L121.25 84Z" fill="#FFB423"/>
<rect x="155" y="133" width="21" height="26" fill="url(#paint5_linear_25:41)"/>
<rect x="176" y="105" width="21" height="54" fill="url(#paint6_linear_25:41)"/>
<path d="M161.861 128.915C162.309 128.528 162.661 128.21 162.918 127.963C163.179 127.711 163.396 127.45 163.569 127.179C163.742 126.908 163.828 126.638 163.828 126.367C163.828 126.087 163.76 125.868 163.625 125.709C163.494 125.55 163.287 125.471 163.002 125.471C162.727 125.471 162.512 125.56 162.358 125.737C162.209 125.91 162.129 126.143 162.12 126.437H161.35C161.364 125.905 161.523 125.499 161.826 125.219C162.134 124.934 162.524 124.792 162.995 124.792C163.504 124.792 163.9 124.932 164.185 125.212C164.474 125.492 164.619 125.865 164.619 126.332C164.619 126.668 164.533 126.992 164.36 127.305C164.192 127.613 163.989 127.891 163.751 128.138C163.518 128.381 163.219 128.663 162.855 128.985L162.54 129.265H164.759V129.93H161.357V129.349L161.861 128.915ZM168.68 125.583H166.335V126.976C166.433 126.845 166.578 126.736 166.769 126.647C166.965 126.558 167.173 126.514 167.392 126.514C167.784 126.514 168.101 126.598 168.344 126.766C168.591 126.934 168.766 127.146 168.869 127.403C168.976 127.66 169.03 127.93 169.03 128.215C169.03 128.56 168.962 128.868 168.827 129.139C168.696 129.405 168.498 129.615 168.232 129.769C167.971 129.923 167.649 130 167.266 130C166.757 130 166.349 129.874 166.041 129.622C165.733 129.37 165.549 129.036 165.488 128.621H166.265C166.316 128.84 166.431 129.015 166.608 129.146C166.785 129.272 167.007 129.335 167.273 129.335C167.604 129.335 167.852 129.235 168.015 129.034C168.183 128.833 168.267 128.567 168.267 128.236C168.267 127.9 168.183 127.643 168.015 127.466C167.847 127.284 167.6 127.193 167.273 127.193C167.044 127.193 166.851 127.251 166.692 127.368C166.538 127.48 166.426 127.634 166.356 127.83H165.6V124.883H168.68V125.583ZM169.665 126.129C169.665 125.788 169.763 125.522 169.959 125.331C170.159 125.135 170.416 125.037 170.729 125.037C171.041 125.037 171.296 125.135 171.492 125.331C171.692 125.522 171.793 125.788 171.793 126.129C171.793 126.47 171.692 126.738 171.492 126.934C171.296 127.13 171.041 127.228 170.729 127.228C170.416 127.228 170.159 127.13 169.959 126.934C169.763 126.738 169.665 126.47 169.665 126.129ZM173.935 125.128L171.142 130H170.358L173.151 125.128H173.935ZM170.729 125.52C170.435 125.52 170.288 125.723 170.288 126.129C170.288 126.54 170.435 126.745 170.729 126.745C170.869 126.745 170.976 126.696 171.051 126.598C171.13 126.495 171.17 126.339 171.17 126.129C171.17 125.723 171.023 125.52 170.729 125.52ZM172.514 128.992C172.514 128.651 172.612 128.385 172.808 128.194C173.008 127.998 173.265 127.9 173.578 127.9C173.886 127.9 174.138 127.998 174.334 128.194C174.534 128.385 174.635 128.651 174.635 128.992C174.635 129.333 174.534 129.601 174.334 129.797C174.138 129.993 173.886 130.091 173.578 130.091C173.265 130.091 173.008 129.993 172.808 129.797C172.612 129.601 172.514 129.333 172.514 128.992ZM173.571 128.383C173.277 128.383 173.13 128.586 173.13 128.992C173.13 129.398 173.277 129.601 173.571 129.601C173.865 129.601 174.012 129.398 174.012 128.992C174.012 128.586 173.865 128.383 173.571 128.383Z" fill="#5EE183"/>
<path d="M159.177 136.177C159.079 136.274 158.921 136.274 158.823 136.177L157.232 134.586C157.135 134.488 157.135 134.33 157.232 134.232C157.33 134.135 157.488 134.135 157.586 134.232L159 135.646L160.414 134.232C160.512 134.135 160.67 134.135 160.768 134.232C160.865 134.33 160.865 134.488 160.768 134.586L159.177 136.177ZM159.25 125L159.25 136L158.75 136L158.75 125L159.25 125Z" fill="#5EE183"/>
<path d="M179.322 99.936V99.334L181.674 95.96H182.64V99.243H183.291V99.936H182.64V101H181.856V99.936H179.322ZM181.891 96.772L180.239 99.243H181.891V96.772ZM183.882 98.382C183.882 97.5747 184.018 96.9447 184.288 96.492C184.564 96.0347 185.035 95.806 185.702 95.806C186.37 95.806 186.839 96.0347 187.109 96.492C187.385 96.9447 187.522 97.5747 187.522 98.382C187.522 99.1987 187.385 99.838 187.109 100.3C186.839 100.757 186.37 100.986 185.702 100.986C185.035 100.986 184.564 100.757 184.288 100.3C184.018 99.838 183.882 99.1987 183.882 98.382ZM186.738 98.382C186.738 98.004 186.713 97.6843 186.661 97.423C186.615 97.1617 186.517 96.9493 186.367 96.786C186.218 96.618 185.996 96.534 185.702 96.534C185.408 96.534 185.187 96.618 185.037 96.786C184.888 96.9493 184.788 97.1617 184.736 97.423C184.69 97.6843 184.666 98.004 184.666 98.382C184.666 98.774 184.69 99.103 184.736 99.369C184.783 99.635 184.881 99.8497 185.03 100.013C185.184 100.176 185.408 100.258 185.702 100.258C185.996 100.258 186.218 100.176 186.367 100.013C186.521 99.8497 186.622 99.635 186.668 99.369C186.715 99.103 186.738 98.774 186.738 98.382ZM188.171 97.129C188.171 96.7883 188.269 96.5223 188.465 96.331C188.665 96.135 188.922 96.037 189.235 96.037C189.547 96.037 189.802 96.135 189.998 96.331C190.198 96.5223 190.299 96.7883 190.299 97.129C190.299 97.4697 190.198 97.738 189.998 97.934C189.802 98.13 189.547 98.228 189.235 98.228C188.922 98.228 188.665 98.13 188.465 97.934C188.269 97.738 188.171 97.4697 188.171 97.129ZM192.441 96.128L189.648 101H188.864L191.657 96.128H192.441ZM189.235 96.52C188.941 96.52 188.794 96.723 188.794 97.129C188.794 97.5397 188.941 97.745 189.235 97.745C189.375 97.745 189.482 97.696 189.557 97.598C189.636 97.4953 189.676 97.339 189.676 97.129C189.676 96.723 189.529 96.52 189.235 96.52ZM191.02 99.992C191.02 99.6513 191.118 99.3853 191.314 99.194C191.514 98.998 191.771 98.9 192.084 98.9C192.392 98.9 192.644 98.998 192.84 99.194C193.04 99.3853 193.141 99.6513 193.141 99.992C193.141 100.333 193.04 100.601 192.84 100.797C192.644 100.993 192.392 101.091 192.084 101.091C191.771 101.091 191.514 100.993 191.314 100.797C191.118 100.601 191.02 100.333 191.02 99.992ZM192.077 99.383C191.783 99.383 191.636 99.586 191.636 99.992C191.636 100.398 191.783 100.601 192.077 100.601C192.371 100.601 192.518 100.398 192.518 99.992C192.518 99.586 192.371 99.383 192.077 99.383Z" fill="#5EE183"/>
<path d="M177.177 107.177C177.079 107.274 176.921 107.274 176.823 107.177L175.232 105.586C175.135 105.488 175.135 105.33 175.232 105.232C175.33 105.135 175.488 105.135 175.586 105.232L177 106.646L178.414 105.232C178.512 105.135 178.67 105.135 178.768 105.232C178.865 105.33 178.865 105.488 178.768 105.586L177.177 107.177ZM177.25 96L177.25 107L176.75 107L176.75 96L177.25 96Z" fill="#5EE183"/>
<defs>
<filter id="filter0_d_25:41" x="0.973093" y="0.381165" width="237.054" height="201.054" filterUnits="userSpaceOnUse" color-interpolation-filters="sRGB">
<feFlood flood-opacity="0" result="BackgroundImageFix"/>
<feColorMatrix in="SourceAlpha" type="matrix" values="0 0 0 0 0 0 0 0 0 0 0 0 0 0 0 0 0 0 127 0" result="hardAlpha"/>
<feOffset dy="5.40807"/>
<feGaussianBlur stdDeviation="9.01345"/>
<feComposite in2="hardAlpha" operator="out"/>
<feColorMatrix type="matrix" values="0 0 0 0 0.3 0 0 0 0 0.20905 0 0 0 0 0.0325 0 0 0 0.25 0"/>
<feBlend mode="normal" in2="BackgroundImageFix" result="effect1_dropShadow_25:41"/>
<feBlend mode="normal" in="SourceGraphic" in2="effect1_dropShadow_25:41" result="shape"/>
</filter>
<linearGradient id="paint0_linear_25:41" x1="291.926" y1="235.324" x2="114.625" y2="-18.147" gradientUnits="userSpaceOnUse">
<stop stop-color="#FBFBFB"/>
<stop offset="0.0001" stop-color="white" stop-opacity="0.15"/>
<stop offset="1" stop-color="#FBFBFB" stop-opacity="0.83"/>
</linearGradient>
<linearGradient id="paint1_linear_25:41" x1="59.5" y1="66" x2="59.5" y2="159" gradientUnits="userSpaceOnUse">
<stop stop-color="#7723FF" stop-opacity="0.22"/>
<stop offset="1" stop-color="#7723FF"/>
</linearGradient>
<linearGradient id="paint2_linear_25:41" x1="80.5" y1="105" x2="80.5" y2="159" gradientUnits="userSpaceOnUse">
<stop stop-color="#7723FF" stop-opacity="0.22"/>
<stop offset="1" stop-color="#7723FF"/>
</linearGradient>
<linearGradient id="paint3_linear_25:41" x1="108.5" y1="89" x2="108.5" y2="159" gradientUnits="userSpaceOnUse">
<stop stop-color="#FFB423" stop-opacity="0.22"/>
<stop offset="1" stop-color="#FFB423"/>
</linearGradient>
<linearGradient id="paint4_linear_25:41" x1="129.5" y1="80" x2="129.5" y2="159" gradientUnits="userSpaceOnUse">
<stop stop-color="#FFB423" stop-opacity="0.22"/>
<stop offset="1" stop-color="#FFB423"/>
</linearGradient>
<linearGradient id="paint5_linear_25:41" x1="165.5" y1="133" x2="165.5" y2="159" gradientUnits="userSpaceOnUse">
<stop offset="0.00520833" stop-color="#5EE183" stop-opacity="0.22"/>
<stop offset="1" stop-color="#5EE183"/>
</linearGradient>
<linearGradient id="paint6_linear_25:41" x1="186.5" y1="105" x2="186.5" y2="159" gradientUnits="userSpaceOnUse">
<stop offset="0.00520833" stop-color="#5EE183" stop-opacity="0.22"/>
<stop offset="1" stop-color="#5EE183"/>
</linearGradient>
</defs>
</svg>
