<svg width="325" height="188" viewBox="0 0 325 188" fill="none" xmlns="http://www.w3.org/2000/svg">
<g filter="url(#filter0_d_25:141)">
<rect x="14" y="10" width="254.762" height="121.491" rx="35.838" fill="url(#paint0_linear_25:141)" shape-rendering="crispEdges"/>
<rect x="14.3682" y="10.3682" width="254.026" height="120.754" rx="35.4698" stroke="#FBFBFB" stroke-opacity="0.8" stroke-width="0.736307" shape-rendering="crispEdges"/>
</g>
<path d="M14.3682 96.6582C19.8905 85.859 56.1167 61.0946 78.795 67.5741C107.143 75.6734 100.148 41.6612 119.66 36.8752C139.172 32.0892 147.64 54.3206 169.729 48.7983C191.818 43.276 209.489 83.7728 218.693 83.4047C227.897 83.0365 231.21 44.0123 247.409 42.5397C260.368 41.3616 265.817 39.5944 266.921 38.8581" stroke="#5EE183" stroke-width="1.47261" stroke-linecap="round" stroke-linejoin="round"/>
<path d="M14.3682 96.29C19.8905 85.4909 40.6543 28.3289 63.3326 34.8084C91.6804 42.9078 89.8396 54.3206 109.352 49.5346C128.864 44.7486 148.008 82.3002 170.097 76.7779C192.186 71.2556 199.549 44.0123 208.753 43.6441C217.957 43.276 237.469 74.2008 253.668 72.7282C266.627 71.5501 267.289 50.2709 268.394 49.5346" stroke="#7723FF" stroke-width="1.47261" stroke-linecap="round" stroke-linejoin="round"/>
<path d="M14 96.432C19.5223 85.6329 44.3358 52.995 67.0141 59.4745C95.3619 67.5739 103.829 91.7298 123.342 86.9438C142.854 82.1578 142.854 69.0465 164.943 63.5242C187.032 58.0019 196.604 41.435 205.808 41.0668C215.012 40.6987 228.265 52.1115 244.464 50.6389C257.423 49.4608 268.394 73.0962 268.394 73.0962" stroke="#FFCF23" stroke-width="1.47261" stroke-linecap="round" stroke-linejoin="round"/>
<path d="M31.2526 105.607C30.9777 105.607 30.7303 105.56 30.5104 105.466C30.2905 105.367 30.1177 105.23 29.9921 105.053C29.8664 104.876 29.8036 104.67 29.8036 104.435H30.5222C30.5379 104.611 30.6066 104.757 30.7284 104.871C30.854 104.984 31.0288 105.041 31.2526 105.041C31.4843 105.041 31.6649 104.986 31.7945 104.876C31.9241 104.763 31.9889 104.617 31.9889 104.441C31.9889 104.303 31.9477 104.191 31.8652 104.105C31.7867 104.018 31.6865 103.952 31.5648 103.905C31.447 103.857 31.2821 103.806 31.07 103.751C30.803 103.681 30.585 103.61 30.4162 103.539C30.2512 103.465 30.1099 103.351 29.9921 103.198C29.8742 103.045 29.8153 102.84 29.8153 102.585C29.8153 102.349 29.8742 102.143 29.9921 101.967C30.1099 101.79 30.2748 101.654 30.4869 101.56C30.6989 101.466 30.9443 101.419 31.2232 101.419C31.6198 101.419 31.9438 101.519 32.1951 101.719C32.4503 101.916 32.5917 102.187 32.6192 102.532H31.877C31.8652 102.383 31.7945 102.255 31.6649 102.149C31.5354 102.043 31.3645 101.99 31.1525 101.99C30.9601 101.99 30.803 102.039 30.6812 102.137C30.5595 102.236 30.4986 102.377 30.4986 102.562C30.4986 102.687 30.5359 102.791 30.6106 102.874C30.6891 102.952 30.7873 103.015 30.9051 103.062C31.0229 103.109 31.1839 103.16 31.3881 103.215C31.6591 103.29 31.879 103.365 32.0478 103.439C32.2206 103.514 32.3659 103.63 32.4837 103.787C32.6055 103.94 32.6663 104.146 32.6663 104.405C32.6663 104.613 32.6094 104.81 32.4955 104.994C32.3855 105.179 32.2226 105.328 32.0066 105.442C31.7945 105.552 31.5432 105.607 31.2526 105.607ZM33.1759 103.928C33.1759 103.602 33.2427 103.314 33.3762 103.062C33.5137 102.811 33.6982 102.617 33.9299 102.479C34.1655 102.338 34.4247 102.267 34.7075 102.267C34.9627 102.267 35.1846 102.318 35.3731 102.42C35.5655 102.518 35.7186 102.642 35.8325 102.791V102.32H36.5099V105.566H35.8325V105.083C35.7186 105.236 35.5635 105.363 35.3672 105.466C35.1708 105.568 34.947 105.619 34.6957 105.619C34.4169 105.619 34.1616 105.548 33.9299 105.407C33.6982 105.261 33.5137 105.061 33.3762 104.806C33.2427 104.547 33.1759 104.254 33.1759 103.928ZM35.8325 103.94C35.8325 103.716 35.7854 103.522 35.6912 103.357C35.6008 103.192 35.4811 103.066 35.3318 102.98C35.1826 102.893 35.0216 102.85 34.8488 102.85C34.676 102.85 34.515 102.893 34.3658 102.98C34.2166 103.062 34.0948 103.186 34.0006 103.351C33.9103 103.512 33.8651 103.704 33.8651 103.928C33.8651 104.152 33.9103 104.348 34.0006 104.517C34.0948 104.686 34.2166 104.816 34.3658 104.906C34.519 104.992 34.68 105.036 34.8488 105.036C35.0216 105.036 35.1826 104.992 35.3318 104.906C35.4811 104.82 35.6008 104.694 35.6912 104.529C35.7854 104.36 35.8325 104.164 35.8325 103.94ZM38.0045 101.207V105.566H37.333V101.207H38.0045ZM41.802 103.863C41.802 103.985 41.7941 104.095 41.7784 104.193H39.2985C39.3181 104.452 39.4144 104.661 39.5871 104.818C39.7599 104.975 39.972 105.053 40.2233 105.053C40.5846 105.053 40.8398 104.902 40.9891 104.6H41.7136C41.6154 104.898 41.4367 105.144 41.1776 105.336C40.9223 105.524 40.6042 105.619 40.2233 105.619C39.9131 105.619 39.6343 105.55 39.3869 105.413C39.1434 105.271 38.951 105.075 38.8096 104.823C38.6722 104.568 38.6034 104.274 38.6034 103.94C38.6034 103.606 38.6702 103.314 38.8037 103.062C38.9412 102.807 39.1316 102.611 39.3751 102.473C39.6225 102.336 39.9052 102.267 40.2233 102.267C40.5296 102.267 40.8025 102.334 41.0421 102.467C41.2816 102.601 41.4682 102.789 41.6017 103.033C41.7352 103.272 41.802 103.549 41.802 103.863ZM41.101 103.651C41.0971 103.404 41.0087 103.206 40.8359 103.056C40.6631 102.907 40.4491 102.833 40.1939 102.833C39.9622 102.833 39.7639 102.907 39.5989 103.056C39.434 103.202 39.3358 103.4 39.3044 103.651H41.101ZM43.582 105.619C43.3267 105.619 43.097 105.574 42.8928 105.483C42.6925 105.389 42.5335 105.263 42.4157 105.106C42.2979 104.945 42.235 104.767 42.2272 104.57H42.9222C42.934 104.708 42.9988 104.823 43.1166 104.918C43.2384 105.008 43.3896 105.053 43.5702 105.053C43.7587 105.053 43.904 105.018 44.0061 104.947C44.1121 104.873 44.1651 104.778 44.1651 104.664C44.1651 104.543 44.1062 104.452 43.9884 104.393C43.8745 104.335 43.6919 104.27 43.4406 104.199C43.1971 104.132 42.9988 104.068 42.8457 104.005C42.6925 103.942 42.559 103.846 42.4451 103.716C42.3352 103.586 42.2802 103.416 42.2802 103.204C42.2802 103.031 42.3312 102.874 42.4333 102.732C42.5354 102.587 42.6807 102.473 42.8692 102.391C43.0616 102.308 43.2816 102.267 43.529 102.267C43.8981 102.267 44.1946 102.361 44.4184 102.55C44.6462 102.734 44.7679 102.988 44.7836 103.31H44.1121C44.1003 103.164 44.0414 103.048 43.9354 102.962C43.8294 102.876 43.686 102.833 43.5054 102.833C43.3287 102.833 43.1932 102.866 43.099 102.933C43.0047 102.999 42.9576 103.088 42.9576 103.198C42.9576 103.284 42.989 103.357 43.0518 103.416C43.1147 103.475 43.1912 103.522 43.2816 103.557C43.3719 103.588 43.5054 103.63 43.6821 103.681C43.9177 103.744 44.1101 103.808 44.2594 103.875C44.4125 103.938 44.5441 104.032 44.654 104.158C44.764 104.284 44.8209 104.45 44.8249 104.659C44.8249 104.843 44.7738 105.008 44.6717 105.153C44.5696 105.299 44.4243 105.413 44.2358 105.495C44.0512 105.577 43.8333 105.619 43.582 105.619ZM47.6343 102.797C47.7482 102.648 47.9033 102.522 48.0996 102.42C48.296 102.318 48.5179 102.267 48.7652 102.267C49.048 102.267 49.3052 102.338 49.5369 102.479C49.7725 102.617 49.9571 102.811 50.0906 103.062C50.2241 103.314 50.2909 103.602 50.2909 103.928C50.2909 104.254 50.2241 104.547 50.0906 104.806C49.9571 105.061 49.7725 105.261 49.5369 105.407C49.3052 105.548 49.048 105.619 48.7652 105.619C48.5179 105.619 48.2979 105.57 48.1055 105.471C47.9131 105.369 47.756 105.244 47.6343 105.094V107.109H46.9628V102.32H47.6343V102.797ZM49.6076 103.928C49.6076 103.704 49.5605 103.512 49.4662 103.351C49.3759 103.186 49.2542 103.062 49.101 102.98C48.9518 102.893 48.7908 102.85 48.618 102.85C48.4491 102.85 48.2881 102.893 48.135 102.98C47.9857 103.066 47.864 103.192 47.7698 103.357C47.6794 103.522 47.6343 103.716 47.6343 103.94C47.6343 104.164 47.6794 104.36 47.7698 104.529C47.864 104.694 47.9857 104.82 48.135 104.906C48.2881 104.992 48.4491 105.036 48.618 105.036C48.7908 105.036 48.9518 104.992 49.101 104.906C49.2542 104.816 49.3759 104.686 49.4662 104.517C49.5605 104.348 49.6076 104.152 49.6076 103.928ZM53.8707 103.863C53.8707 103.985 53.8629 104.095 53.8471 104.193H51.3673C51.3869 104.452 51.4831 104.661 51.6559 104.818C51.8287 104.975 52.0407 105.053 52.2921 105.053C52.6533 105.053 52.9086 104.902 53.0578 104.6H53.7823C53.6842 104.898 53.5055 105.144 53.2463 105.336C52.9911 105.524 52.673 105.619 52.2921 105.619C51.9818 105.619 51.703 105.55 51.4556 105.413C51.2121 105.271 51.0197 105.075 50.8784 104.823C50.7409 104.568 50.6722 104.274 50.6722 103.94C50.6722 103.606 50.7389 103.314 50.8725 103.062C51.0099 102.807 51.2004 102.611 51.4438 102.473C51.6912 102.336 51.974 102.267 52.2921 102.267C52.5984 102.267 52.8713 102.334 53.1108 102.467C53.3504 102.601 53.5369 102.789 53.6704 103.033C53.8039 103.272 53.8707 103.549 53.8707 103.863ZM53.1697 103.651C53.1658 103.404 53.0775 103.206 52.9047 103.056C52.7319 102.907 52.5179 102.833 52.2626 102.833C52.0309 102.833 51.8326 102.907 51.6677 103.056C51.5027 103.202 51.4046 103.4 51.3732 103.651H53.1697ZM55.1441 102.791C55.2423 102.626 55.3719 102.499 55.5329 102.408C55.6979 102.314 55.8922 102.267 56.1161 102.267V102.962H55.9453C55.6821 102.962 55.4819 103.029 55.3444 103.162C55.2109 103.296 55.1441 103.528 55.1441 103.857V105.566H54.4726V102.32H55.1441V102.791ZM57.9218 103.928C57.9218 103.602 57.9886 103.314 58.1221 103.062C58.2595 102.811 58.4441 102.617 58.6758 102.479C58.9114 102.338 59.1726 102.267 59.4592 102.267C59.6713 102.267 59.8794 102.314 60.0836 102.408C60.2917 102.499 60.4567 102.62 60.5784 102.774V101.207H61.2558V105.566H60.5784V105.077C60.4685 105.234 60.3153 105.363 60.119 105.466C59.9265 105.568 59.7047 105.619 59.4533 105.619C59.1706 105.619 58.9114 105.548 58.6758 105.407C58.4441 105.261 58.2595 105.061 58.1221 104.806C57.9886 104.547 57.9218 104.254 57.9218 103.928ZM60.5784 103.94C60.5784 103.716 60.5313 103.522 60.437 103.357C60.3467 103.192 60.2269 103.066 60.0777 102.98C59.9285 102.893 59.7675 102.85 59.5947 102.85C59.4219 102.85 59.2609 102.893 59.1117 102.98C58.9625 103.062 58.8407 103.186 58.7465 103.351C58.6562 103.512 58.611 103.704 58.611 103.928C58.611 104.152 58.6562 104.348 58.7465 104.517C58.8407 104.686 58.9625 104.816 59.1117 104.906C59.2648 104.992 59.4258 105.036 59.5947 105.036C59.7675 105.036 59.9285 104.992 60.0777 104.906C60.2269 104.82 60.3467 104.694 60.437 104.529C60.5313 104.36 60.5784 104.164 60.5784 103.94ZM61.8551 103.928C61.8551 103.602 61.9218 103.314 62.0554 103.062C62.1928 102.811 62.3774 102.617 62.6091 102.479C62.8447 102.338 63.1039 102.267 63.3866 102.267C63.6418 102.267 63.8637 102.318 64.0522 102.42C64.2446 102.518 64.3978 102.642 64.5117 102.791V102.32H65.1891V105.566H64.5117V105.083C64.3978 105.236 64.2427 105.363 64.0463 105.466C63.85 105.568 63.6261 105.619 63.3748 105.619C63.096 105.619 62.8407 105.548 62.6091 105.407C62.3774 105.261 62.1928 105.061 62.0554 104.806C61.9218 104.547 61.8551 104.254 61.8551 103.928ZM64.5117 103.94C64.5117 103.716 64.4645 103.522 64.3703 103.357C64.28 103.192 64.1602 103.066 64.011 102.98C63.8618 102.893 63.7008 102.85 63.528 102.85C63.3552 102.85 63.1942 102.893 63.0449 102.98C62.8957 103.062 62.774 103.186 62.6797 103.351C62.5894 103.512 62.5443 103.704 62.5443 103.928C62.5443 104.152 62.5894 104.348 62.6797 104.517C62.774 104.686 62.8957 104.816 63.0449 104.906C63.1981 104.992 63.3591 105.036 63.528 105.036C63.7008 105.036 63.8618 104.992 64.011 104.906C64.1602 104.82 64.28 104.694 64.3703 104.529C64.4645 104.36 64.5117 104.164 64.5117 103.94ZM68.9338 102.32L66.9429 107.091H66.2478L66.9075 105.513L65.6293 102.32H66.3774L67.2904 104.794L68.2388 102.32H68.9338Z" fill="#626261"/>
<path d="M96.7839 105.607C96.509 105.607 96.2616 105.56 96.0417 105.466C95.8218 105.367 95.649 105.23 95.5233 105.053C95.3976 104.876 95.3348 104.67 95.3348 104.435H96.0534C96.0692 104.611 96.1379 104.757 96.2596 104.871C96.3853 104.984 96.56 105.041 96.7839 105.041C97.0156 105.041 97.1962 104.986 97.3258 104.876C97.4554 104.763 97.5202 104.617 97.5202 104.441C97.5202 104.303 97.4789 104.191 97.3965 104.105C97.3179 104.018 97.2178 103.952 97.0961 103.905C96.9782 103.857 96.8133 103.806 96.6013 103.751C96.3342 103.681 96.1163 103.61 95.9474 103.539C95.7825 103.465 95.6411 103.351 95.5233 103.198C95.4055 103.045 95.3466 102.84 95.3466 102.585C95.3466 102.349 95.4055 102.143 95.5233 101.967C95.6411 101.79 95.806 101.654 96.0181 101.56C96.2302 101.466 96.4756 101.419 96.7544 101.419C97.151 101.419 97.475 101.519 97.7263 101.719C97.9816 101.916 98.123 102.187 98.1504 102.532H97.4082C97.3965 102.383 97.3258 102.255 97.1962 102.149C97.0666 102.043 96.8958 101.99 96.6837 101.99C96.4913 101.99 96.3342 102.039 96.2125 102.137C96.0908 102.236 96.0299 102.377 96.0299 102.562C96.0299 102.687 96.0672 102.791 96.1418 102.874C96.2203 102.952 96.3185 103.015 96.4363 103.062C96.5541 103.109 96.7151 103.16 96.9193 103.215C97.1903 103.29 97.4102 103.365 97.5791 103.439C97.7519 103.514 97.8972 103.63 98.015 103.787C98.1367 103.94 98.1976 104.146 98.1976 104.405C98.1976 104.613 98.1406 104.81 98.0267 104.994C97.9168 105.179 97.7538 105.328 97.5378 105.442C97.3258 105.552 97.0745 105.607 96.7839 105.607ZM98.7072 103.928C98.7072 103.602 98.7739 103.314 98.9075 103.062C99.0449 102.811 99.2295 102.617 99.4612 102.479C99.6968 102.338 99.956 102.267 100.239 102.267C100.494 102.267 100.716 102.318 100.904 102.42C101.097 102.518 101.25 102.642 101.364 102.791V102.32H102.041V105.566H101.364V105.083C101.25 105.236 101.095 105.363 100.898 105.466C100.702 105.568 100.478 105.619 100.227 105.619C99.9481 105.619 99.6929 105.548 99.4612 105.407C99.2295 105.261 99.0449 105.061 98.9075 104.806C98.7739 104.547 98.7072 104.254 98.7072 103.928ZM101.364 103.94C101.364 103.716 101.317 103.522 101.222 103.357C101.132 103.192 101.012 103.066 100.863 102.98C100.714 102.893 100.553 102.85 100.38 102.85C100.207 102.85 100.046 102.893 99.8971 102.98C99.7478 103.062 99.6261 103.186 99.5318 103.351C99.4415 103.512 99.3964 103.704 99.3964 103.928C99.3964 104.152 99.4415 104.348 99.5318 104.517C99.6261 104.686 99.7478 104.816 99.8971 104.906C100.05 104.992 100.211 105.036 100.38 105.036C100.553 105.036 100.714 104.992 100.863 104.906C101.012 104.82 101.132 104.694 101.222 104.529C101.317 104.36 101.364 104.164 101.364 103.94ZM103.536 101.207V105.566H102.864V101.207H103.536ZM107.333 103.863C107.333 103.985 107.325 104.095 107.31 104.193H104.83C104.849 104.452 104.946 104.661 105.118 104.818C105.291 104.975 105.503 105.053 105.755 105.053C106.116 105.053 106.371 104.902 106.52 104.6H107.245C107.147 104.898 106.968 105.144 106.709 105.336C106.454 105.524 106.135 105.619 105.755 105.619C105.444 105.619 105.166 105.55 104.918 105.413C104.675 105.271 104.482 105.075 104.341 104.823C104.203 104.568 104.135 104.274 104.135 103.94C104.135 103.606 104.201 103.314 104.335 103.062C104.472 102.807 104.663 102.611 104.906 102.473C105.154 102.336 105.436 102.267 105.755 102.267C106.061 102.267 106.334 102.334 106.573 102.467C106.813 102.601 106.999 102.789 107.133 103.033C107.266 103.272 107.333 103.549 107.333 103.863ZM106.632 103.651C106.628 103.404 106.54 103.206 106.367 103.056C106.194 102.907 105.98 102.833 105.725 102.833C105.493 102.833 105.295 102.907 105.13 103.056C104.965 103.202 104.867 103.4 104.836 103.651H106.632ZM109.113 105.619C108.858 105.619 108.628 105.574 108.424 105.483C108.224 105.389 108.065 105.263 107.947 105.106C107.829 104.945 107.766 104.767 107.758 104.57H108.453C108.465 104.708 108.53 104.823 108.648 104.918C108.77 105.008 108.921 105.053 109.101 105.053C109.29 105.053 109.435 105.018 109.537 104.947C109.643 104.873 109.696 104.778 109.696 104.664C109.696 104.543 109.637 104.452 109.52 104.393C109.406 104.335 109.223 104.27 108.972 104.199C108.728 104.132 108.53 104.068 108.377 104.005C108.224 103.942 108.09 103.846 107.976 103.716C107.866 103.586 107.811 103.416 107.811 103.204C107.811 103.031 107.862 102.874 107.965 102.732C108.067 102.587 108.212 102.473 108.4 102.391C108.593 102.308 108.813 102.267 109.06 102.267C109.429 102.267 109.726 102.361 109.95 102.55C110.177 102.734 110.299 102.988 110.315 103.31H109.643C109.632 103.164 109.573 103.048 109.467 102.962C109.361 102.876 109.217 102.833 109.037 102.833C108.86 102.833 108.724 102.866 108.63 102.933C108.536 102.999 108.489 103.088 108.489 103.198C108.489 103.284 108.52 103.357 108.583 103.416C108.646 103.475 108.722 103.522 108.813 103.557C108.903 103.588 109.037 103.63 109.213 103.681C109.449 103.744 109.641 103.808 109.791 103.875C109.944 103.938 110.075 104.032 110.185 104.158C110.295 104.284 110.352 104.45 110.356 104.659C110.356 104.843 110.305 105.008 110.203 105.153C110.101 105.299 109.956 105.413 109.767 105.495C109.582 105.577 109.365 105.619 109.113 105.619ZM113.166 102.797C113.279 102.648 113.435 102.522 113.631 102.42C113.827 102.318 114.049 102.267 114.296 102.267C114.579 102.267 114.836 102.338 115.068 102.479C115.304 102.617 115.488 102.811 115.622 103.062C115.755 103.314 115.822 103.602 115.822 103.928C115.822 104.254 115.755 104.547 115.622 104.806C115.488 105.061 115.304 105.261 115.068 105.407C114.836 105.548 114.579 105.619 114.296 105.619C114.049 105.619 113.829 105.57 113.637 105.471C113.444 105.369 113.287 105.244 113.166 105.094V107.109H112.494V102.32H113.166V102.797ZM115.139 103.928C115.139 103.704 115.092 103.512 114.997 103.351C114.907 103.186 114.785 103.062 114.632 102.98C114.483 102.893 114.322 102.85 114.149 102.85C113.98 102.85 113.819 102.893 113.666 102.98C113.517 103.066 113.395 103.192 113.301 103.357C113.211 103.522 113.166 103.716 113.166 103.94C113.166 104.164 113.211 104.36 113.301 104.529C113.395 104.694 113.517 104.82 113.666 104.906C113.819 104.992 113.98 105.036 114.149 105.036C114.322 105.036 114.483 104.992 114.632 104.906C114.785 104.816 114.907 104.686 114.997 104.517C115.092 104.348 115.139 104.152 115.139 103.928ZM119.402 103.863C119.402 103.985 119.394 104.095 119.378 104.193H116.899C116.918 104.452 117.014 104.661 117.187 104.818C117.36 104.975 117.572 105.053 117.823 105.053C118.185 105.053 118.44 104.902 118.589 104.6H119.314C119.215 104.898 119.037 105.144 118.778 105.336C118.522 105.524 118.204 105.619 117.823 105.619C117.513 105.619 117.234 105.55 116.987 105.413C116.743 105.271 116.551 105.075 116.41 104.823C116.272 104.568 116.203 104.274 116.203 103.94C116.203 103.606 116.27 103.314 116.404 103.062C116.541 102.807 116.732 102.611 116.975 102.473C117.222 102.336 117.505 102.267 117.823 102.267C118.13 102.267 118.403 102.334 118.642 102.467C118.882 102.601 119.068 102.789 119.202 103.033C119.335 103.272 119.402 103.549 119.402 103.863ZM118.701 103.651C118.697 103.404 118.609 103.206 118.436 103.056C118.263 102.907 118.049 102.833 117.794 102.833C117.562 102.833 117.364 102.907 117.199 103.056C117.034 103.202 116.936 103.4 116.904 103.651H118.701ZM120.675 102.791C120.774 102.626 120.903 102.499 121.064 102.408C121.229 102.314 121.423 102.267 121.647 102.267V102.962H121.477C121.213 102.962 121.013 103.029 120.876 103.162C120.742 103.296 120.675 103.528 120.675 103.857V105.566H120.004V102.32H120.675V102.791ZM128.036 102.32L127.029 105.566H126.322L125.668 103.168L125.014 105.566H124.307L123.294 102.32H123.977L124.655 104.93L125.344 102.32H126.045L126.705 104.918L127.376 102.32H128.036ZM131.453 103.863C131.453 103.985 131.446 104.095 131.43 104.193H128.95C128.97 104.452 129.066 104.661 129.239 104.818C129.411 104.975 129.623 105.053 129.875 105.053C130.236 105.053 130.491 104.902 130.641 104.6H131.365C131.267 104.898 131.088 105.144 130.829 105.336C130.574 105.524 130.256 105.619 129.875 105.619C129.565 105.619 129.286 105.55 129.038 105.413C128.795 105.271 128.602 105.075 128.461 104.823C128.324 104.568 128.255 104.274 128.255 103.94C128.255 103.606 128.322 103.314 128.455 103.062C128.593 102.807 128.783 102.611 129.027 102.473C129.274 102.336 129.557 102.267 129.875 102.267C130.181 102.267 130.454 102.334 130.694 102.467C130.933 102.601 131.12 102.789 131.253 103.033C131.387 103.272 131.453 103.549 131.453 103.863ZM130.752 103.651C130.749 103.404 130.66 103.206 130.487 103.056C130.315 102.907 130.101 102.833 129.845 102.833C129.614 102.833 129.415 102.907 129.25 103.056C129.085 103.202 128.987 103.4 128.956 103.651H130.752ZM135.03 103.863C135.03 103.985 135.022 104.095 135.007 104.193H132.527C132.546 104.452 132.642 104.661 132.815 104.818C132.988 104.975 133.2 105.053 133.451 105.053C133.813 105.053 134.068 104.902 134.217 104.6H134.942C134.844 104.898 134.665 105.144 134.406 105.336C134.15 105.524 133.832 105.619 133.451 105.619C133.141 105.619 132.862 105.55 132.615 105.413C132.372 105.271 132.179 105.075 132.038 104.823C131.9 104.568 131.832 104.274 131.832 103.94C131.832 103.606 131.898 103.314 132.032 103.062C132.169 102.807 132.36 102.611 132.603 102.473C132.851 102.336 133.133 102.267 133.451 102.267C133.758 102.267 134.031 102.334 134.27 102.467C134.51 102.601 134.696 102.789 134.83 103.033C134.963 103.272 135.03 103.549 135.03 103.863ZM134.329 103.651C134.325 103.404 134.237 103.206 134.064 103.056C133.891 102.907 133.677 102.833 133.422 102.833C133.19 102.833 132.992 102.907 132.827 103.056C132.662 103.202 132.564 103.4 132.533 103.651H134.329ZM136.916 103.946L138.412 105.566H137.505L136.304 104.17V105.566H135.632V101.207H136.304V103.74L137.482 102.32H138.412L136.916 103.946Z" fill="#626261"/>
<path d="M163.788 105.607C163.513 105.607 163.265 105.56 163.046 105.466C162.826 105.367 162.653 105.23 162.527 105.053C162.402 104.876 162.339 104.67 162.339 104.435H163.057C163.073 104.611 163.142 104.757 163.264 104.871C163.389 104.984 163.564 105.041 163.788 105.041C164.019 105.041 164.2 104.986 164.33 104.876C164.459 104.763 164.524 104.617 164.524 104.441C164.524 104.303 164.483 104.191 164.4 104.105C164.322 104.018 164.222 103.952 164.1 103.905C163.982 103.857 163.817 103.806 163.605 103.751C163.338 103.681 163.12 103.61 162.951 103.539C162.786 103.465 162.645 103.351 162.527 103.198C162.409 103.045 162.35 102.84 162.35 102.585C162.35 102.349 162.409 102.143 162.527 101.967C162.645 101.79 162.81 101.654 163.022 101.56C163.234 101.466 163.48 101.419 163.758 101.419C164.155 101.419 164.479 101.519 164.73 101.719C164.985 101.916 165.127 102.187 165.154 102.532H164.412C164.4 102.383 164.33 102.255 164.2 102.149C164.071 102.043 163.9 101.99 163.688 101.99C163.495 101.99 163.338 102.039 163.216 102.137C163.095 102.236 163.034 102.377 163.034 102.562C163.034 102.687 163.071 102.791 163.146 102.874C163.224 102.952 163.322 103.015 163.44 103.062C163.558 103.109 163.719 103.16 163.923 103.215C164.194 103.29 164.414 103.365 164.583 103.439C164.756 103.514 164.901 103.63 165.019 103.787C165.141 103.94 165.201 104.146 165.201 104.405C165.201 104.613 165.145 104.81 165.031 104.994C164.921 105.179 164.758 105.328 164.542 105.442C164.33 105.552 164.078 105.607 163.788 105.607ZM165.711 103.928C165.711 103.602 165.778 103.314 165.911 103.062C166.049 102.811 166.233 102.617 166.465 102.479C166.701 102.338 166.96 102.267 167.243 102.267C167.498 102.267 167.72 102.318 167.908 102.42C168.101 102.518 168.254 102.642 168.368 102.791V102.32H169.045V105.566H168.368V105.083C168.254 105.236 168.099 105.363 167.902 105.466C167.706 105.568 167.482 105.619 167.231 105.619C166.952 105.619 166.697 105.548 166.465 105.407C166.233 105.261 166.049 105.061 165.911 104.806C165.778 104.547 165.711 104.254 165.711 103.928ZM168.368 103.94C168.368 103.716 168.321 103.522 168.226 103.357C168.136 103.192 168.016 103.066 167.867 102.98C167.718 102.893 167.557 102.85 167.384 102.85C167.211 102.85 167.05 102.893 166.901 102.98C166.752 103.062 166.63 103.186 166.536 103.351C166.445 103.512 166.4 103.704 166.4 103.928C166.4 104.152 166.445 104.348 166.536 104.517C166.63 104.686 166.752 104.816 166.901 104.906C167.054 104.992 167.215 105.036 167.384 105.036C167.557 105.036 167.718 104.992 167.867 104.906C168.016 104.82 168.136 104.694 168.226 104.529C168.321 104.36 168.368 104.164 168.368 103.94ZM170.54 101.207V105.566H169.868V101.207H170.54ZM174.337 103.863C174.337 103.985 174.329 104.095 174.314 104.193H171.834C171.853 104.452 171.95 104.661 172.122 104.818C172.295 104.975 172.507 105.053 172.758 105.053C173.12 105.053 173.375 104.902 173.524 104.6H174.249C174.151 104.898 173.972 105.144 173.713 105.336C173.457 105.524 173.139 105.619 172.758 105.619C172.448 105.619 172.169 105.55 171.922 105.413C171.679 105.271 171.486 105.075 171.345 104.823C171.207 104.568 171.139 104.274 171.139 103.94C171.139 103.606 171.205 103.314 171.339 103.062C171.476 102.807 171.667 102.611 171.91 102.473C172.158 102.336 172.44 102.267 172.758 102.267C173.065 102.267 173.338 102.334 173.577 102.467C173.817 102.601 174.003 102.789 174.137 103.033C174.27 103.272 174.337 103.549 174.337 103.863ZM173.636 103.651C173.632 103.404 173.544 103.206 173.371 103.056C173.198 102.907 172.984 102.833 172.729 102.833C172.497 102.833 172.299 102.907 172.134 103.056C171.969 103.202 171.871 103.4 171.84 103.651H173.636ZM176.117 105.619C175.862 105.619 175.632 105.574 175.428 105.483C175.228 105.389 175.069 105.263 174.951 105.106C174.833 104.945 174.77 104.767 174.762 104.57H175.457C175.469 104.708 175.534 104.823 175.652 104.918C175.774 105.008 175.925 105.053 176.105 105.053C176.294 105.053 176.439 105.018 176.541 104.947C176.647 104.873 176.7 104.778 176.7 104.664C176.7 104.543 176.641 104.452 176.524 104.393C176.41 104.335 176.227 104.27 175.976 104.199C175.732 104.132 175.534 104.068 175.381 104.005C175.228 103.942 175.094 103.846 174.98 103.716C174.87 103.586 174.815 103.416 174.815 103.204C174.815 103.031 174.866 102.874 174.968 102.732C175.071 102.587 175.216 102.473 175.404 102.391C175.597 102.308 175.817 102.267 176.064 102.267C176.433 102.267 176.73 102.361 176.954 102.55C177.181 102.734 177.303 102.988 177.319 103.31H176.647C176.635 103.164 176.577 103.048 176.471 102.962C176.365 102.876 176.221 102.833 176.041 102.833C175.864 102.833 175.728 102.866 175.634 102.933C175.54 102.999 175.493 103.088 175.493 103.198C175.493 103.284 175.524 103.357 175.587 103.416C175.65 103.475 175.726 103.522 175.817 103.557C175.907 103.588 176.041 103.63 176.217 103.681C176.453 103.744 176.645 103.808 176.795 103.875C176.948 103.938 177.079 104.032 177.189 104.158C177.299 104.284 177.356 104.45 177.36 104.659C177.36 104.843 177.309 105.008 177.207 105.153C177.105 105.299 176.959 105.413 176.771 105.495C176.586 105.577 176.368 105.619 176.117 105.619ZM180.169 102.797C180.283 102.648 180.438 102.522 180.635 102.42C180.831 102.318 181.053 102.267 181.3 102.267C181.583 102.267 181.84 102.338 182.072 102.479C182.308 102.617 182.492 102.811 182.626 103.062C182.759 103.314 182.826 103.602 182.826 103.928C182.826 104.254 182.759 104.547 182.626 104.806C182.492 105.061 182.308 105.261 182.072 105.407C181.84 105.548 181.583 105.619 181.3 105.619C181.053 105.619 180.833 105.57 180.641 105.471C180.448 105.369 180.291 105.244 180.169 105.094V107.109H179.498V102.32H180.169V102.797ZM182.143 103.928C182.143 103.704 182.096 103.512 182.001 103.351C181.911 103.186 181.789 103.062 181.636 102.98C181.487 102.893 181.326 102.85 181.153 102.85C180.984 102.85 180.823 102.893 180.67 102.98C180.521 103.066 180.399 103.192 180.305 103.357C180.215 103.522 180.169 103.716 180.169 103.94C180.169 104.164 180.215 104.36 180.305 104.529C180.399 104.694 180.521 104.82 180.67 104.906C180.823 104.992 180.984 105.036 181.153 105.036C181.326 105.036 181.487 104.992 181.636 104.906C181.789 104.816 181.911 104.686 182.001 104.517C182.096 104.348 182.143 104.152 182.143 103.928ZM186.406 103.863C186.406 103.985 186.398 104.095 186.382 104.193H183.902C183.922 104.452 184.018 104.661 184.191 104.818C184.364 104.975 184.576 105.053 184.827 105.053C185.189 105.053 185.444 104.902 185.593 104.6H186.318C186.219 104.898 186.041 105.144 185.781 105.336C185.526 105.524 185.208 105.619 184.827 105.619C184.517 105.619 184.238 105.55 183.991 105.413C183.747 105.271 183.555 105.075 183.414 104.823C183.276 104.568 183.207 104.274 183.207 103.94C183.207 103.606 183.274 103.314 183.408 103.062C183.545 102.807 183.736 102.611 183.979 102.473C184.226 102.336 184.509 102.267 184.827 102.267C185.134 102.267 185.406 102.334 185.646 102.467C185.886 102.601 186.072 102.789 186.206 103.033C186.339 103.272 186.406 103.549 186.406 103.863ZM185.705 103.651C185.701 103.404 185.613 103.206 185.44 103.056C185.267 102.907 185.053 102.833 184.798 102.833C184.566 102.833 184.368 102.907 184.203 103.056C184.038 103.202 183.94 103.4 183.908 103.651H185.705ZM187.679 102.791C187.777 102.626 187.907 102.499 188.068 102.408C188.233 102.314 188.427 102.267 188.651 102.267V102.962H188.48C188.217 102.962 188.017 103.029 187.88 103.162C187.746 103.296 187.679 103.528 187.679 103.857V105.566H187.008V102.32H187.679V102.791ZM194.61 102.267C194.865 102.267 195.093 102.32 195.293 102.426C195.497 102.532 195.656 102.689 195.77 102.897C195.888 103.105 195.947 103.357 195.947 103.651V105.566H195.281V103.751C195.281 103.461 195.209 103.239 195.063 103.086C194.918 102.929 194.72 102.85 194.468 102.85C194.217 102.85 194.017 102.929 193.868 103.086C193.722 103.239 193.65 103.461 193.65 103.751V105.566H192.984V103.751C192.984 103.461 192.911 103.239 192.766 103.086C192.621 102.929 192.422 102.85 192.171 102.85C191.92 102.85 191.719 102.929 191.57 103.086C191.425 103.239 191.352 103.461 191.352 103.751V105.566H190.681V102.32H191.352V102.691C191.462 102.558 191.602 102.454 191.771 102.379C191.939 102.304 192.12 102.267 192.312 102.267C192.572 102.267 192.803 102.322 193.008 102.432C193.212 102.542 193.369 102.701 193.479 102.909C193.577 102.713 193.73 102.558 193.938 102.444C194.146 102.326 194.37 102.267 194.61 102.267ZM198.15 105.619C197.844 105.619 197.567 105.55 197.32 105.413C197.072 105.271 196.878 105.075 196.737 104.823C196.595 104.568 196.525 104.274 196.525 103.94C196.525 103.61 196.597 103.317 196.742 103.062C196.888 102.807 197.086 102.611 197.337 102.473C197.589 102.336 197.869 102.267 198.18 102.267C198.49 102.267 198.771 102.336 199.022 102.473C199.273 102.611 199.472 102.807 199.617 103.062C199.762 103.317 199.835 103.61 199.835 103.94C199.835 104.27 199.76 104.562 199.611 104.818C199.462 105.073 199.258 105.271 198.998 105.413C198.743 105.55 198.461 105.619 198.15 105.619ZM198.15 105.036C198.323 105.036 198.484 104.994 198.633 104.912C198.786 104.829 198.91 104.706 199.004 104.541C199.099 104.376 199.146 104.176 199.146 103.94C199.146 103.704 199.101 103.506 199.01 103.345C198.92 103.18 198.8 103.056 198.651 102.974C198.502 102.891 198.341 102.85 198.168 102.85C197.995 102.85 197.834 102.891 197.685 102.974C197.54 103.056 197.424 103.18 197.337 103.345C197.251 103.506 197.208 103.704 197.208 103.94C197.208 104.289 197.296 104.56 197.473 104.753C197.654 104.941 197.879 105.036 198.15 105.036ZM202.077 102.267C202.333 102.267 202.56 102.32 202.761 102.426C202.965 102.532 203.124 102.689 203.238 102.897C203.352 103.105 203.409 103.357 203.409 103.651V105.566H202.743V103.751C202.743 103.461 202.67 103.239 202.525 103.086C202.38 102.929 202.181 102.85 201.93 102.85C201.679 102.85 201.479 102.929 201.329 103.086C201.184 103.239 201.111 103.461 201.111 103.751V105.566H200.44V102.32H201.111V102.691C201.221 102.558 201.361 102.454 201.53 102.379C201.702 102.304 201.885 102.267 202.077 102.267ZM204.99 102.868V104.664C204.99 104.786 205.017 104.875 205.072 104.93C205.131 104.981 205.229 105.006 205.367 105.006H205.779V105.566H205.249C204.947 105.566 204.715 105.495 204.554 105.354C204.393 105.212 204.312 104.983 204.312 104.664V102.868H203.929V102.32H204.312V101.513H204.99V102.32H205.779V102.868H204.99ZM208.018 102.267C208.265 102.267 208.485 102.32 208.678 102.426C208.874 102.532 209.027 102.689 209.137 102.897C209.251 103.105 209.308 103.357 209.308 103.651V105.566H208.642V103.751C208.642 103.461 208.57 103.239 208.424 103.086C208.279 102.929 208.081 102.85 207.829 102.85C207.578 102.85 207.378 102.929 207.229 103.086C207.083 103.239 207.011 103.461 207.011 103.751V105.566H206.339V101.207H207.011V102.697C207.124 102.56 207.268 102.454 207.441 102.379C207.617 102.304 207.81 102.267 208.018 102.267Z" fill="#626261"/>
<rect x="142.118" y="101.302" width="4.41784" height="4.41784" rx="0.736307" fill="#FFCF23"/>
<rect x="212.803" y="101.302" width="4.41784" height="4.41784" rx="0.736307" fill="#5EE183"/>
<rect x="72.9038" y="101.302" width="4.41784" height="4.41784" rx="0.736307" fill="#7723FF"/>
<line x1="14" y1="96.516" x2="268.762" y2="96.516" stroke="#959494" stroke-opacity="0.15" stroke-width="0.736307"/>
<g filter="url(#filter1_d_25:141)">
<rect x="229.315" y="91.3342" width="77.1056" height="72.8219" rx="36.411" fill="url(#paint1_linear_25:141)" shape-rendering="crispEdges"/>
<rect x="230.029" y="92.0482" width="75.6777" height="71.3941" rx="35.697" stroke="white" stroke-opacity="0.8" stroke-width="1.42788" shape-rendering="crispEdges"/>
</g>
<g filter="url(#filter2_ii_25:141)">
<rect x="244.68" y="109.635" width="25.9809" height="37.0807" rx="2.43952" fill="#4E40E7"/>
</g>
<mask id="mask0_25:141" style="mask-type:alpha" maskUnits="userSpaceOnUse" x="251" y="103" width="41" height="49">
<path d="M255.474 103.657L275.032 103.657C276.38 103.657 277.677 104.171 278.658 105.096L289.492 115.306C290.552 116.305 291.152 117.696 291.152 119.153L291.152 147.263C291.152 149.453 289.378 151.227 287.188 151.227L255.474 151.227C253.285 151.227 251.51 149.453 251.51 147.263L251.51 107.621C251.51 105.432 253.285 103.657 255.474 103.657Z" fill="#4D72D3"/>
</mask>
<g mask="url(#mask0_25:141)">
<g filter="url(#filter3_dii_25:141)">
<path d="M255.474 103.657L275.032 103.657C276.38 103.657 277.677 104.171 278.658 105.096L289.492 115.306C290.552 116.305 291.152 117.696 291.152 119.153L291.152 147.263C291.152 149.453 289.378 151.227 287.188 151.227L255.474 151.227C253.285 151.227 251.51 149.453 251.51 147.263L251.51 107.621C251.51 105.432 253.285 103.657 255.474 103.657Z" fill="#7280FF"/>
</g>
<g filter="url(#filter4_dii_25:141)">
<path fill-rule="evenodd" clip-rule="evenodd" d="M283.224 115.549L291.152 115.549L291.152 103.657L279.26 103.657L279.26 111.585C279.26 113.775 281.035 115.549 283.224 115.549Z" fill="white"/>
</g>
</g>
<g filter="url(#filter5_dii_25:141)">
<path fill-rule="evenodd" clip-rule="evenodd" d="M267.157 118.182C267.804 118.958 267.699 120.112 266.923 120.759L262.069 124.804C261.67 125.136 261.149 125.284 260.635 125.209C260.121 125.135 259.663 124.845 259.375 124.413L257.757 121.986C257.197 121.145 257.424 120.009 258.265 119.449C259.105 118.888 260.241 119.116 260.802 119.956L261.29 120.689L264.58 117.948C265.357 117.301 266.51 117.406 267.157 118.182Z" fill="white"/>
</g>
<g filter="url(#filter6_dii_25:141)">
<path fill-rule="evenodd" clip-rule="evenodd" d="M270.393 122.588C270.393 121.578 271.212 120.759 272.223 120.759L283.549 120.759C284.56 120.759 285.379 121.578 285.379 122.588C285.379 123.599 284.56 124.418 283.549 124.418L272.223 124.418C271.212 124.418 270.393 123.599 270.393 122.588Z" fill="white"/>
</g>
<g filter="url(#filter7_dii_25:141)">
<path fill-rule="evenodd" clip-rule="evenodd" d="M267.158 133.915C267.158 132.904 267.977 132.085 268.988 132.085L283.55 132.085C284.561 132.085 285.38 132.904 285.38 133.915C285.38 134.925 284.561 135.744 283.55 135.744L268.988 135.744C267.977 135.744 267.158 134.925 267.158 133.915Z" fill="white"/>
</g>
<g filter="url(#filter8_dii_25:141)">
<path fill-rule="evenodd" clip-rule="evenodd" d="M259.066 133.915C259.066 132.904 259.85 132.085 260.818 132.085L260.973 132.085C261.941 132.085 262.725 132.904 262.725 133.915C262.725 134.925 261.941 135.744 260.973 135.744L260.818 135.744C259.85 135.744 259.066 134.925 259.066 133.915Z" fill="white"/>
</g>
<defs>
<filter id="filter0_d_25:141" x="0.726671" y="0.70867" width="281.309" height="148.037" filterUnits="userSpaceOnUse" color-interpolation-filters="sRGB">
<feFlood flood-opacity="0" result="BackgroundImageFix"/>
<feColorMatrix in="SourceAlpha" type="matrix" values="0 0 0 0 0 0 0 0 0 0 0 0 0 0 0 0 0 0 127 0" result="hardAlpha"/>
<feOffset dy="3.982"/>
<feGaussianBlur stdDeviation="6.63666"/>
<feComposite in2="hardAlpha" operator="out"/>
<feColorMatrix type="matrix" values="0 0 0 0 0.3 0 0 0 0 0.20905 0 0 0 0 0.0325 0 0 0 0.25 0"/>
<feBlend mode="normal" in2="BackgroundImageFix" result="effect1_dropShadow_25:141"/>
<feBlend mode="normal" in="SourceGraphic" in2="effect1_dropShadow_25:141" result="shape"/>
</filter>
<filter id="filter1_d_25:141" x="211.514" y="78.8739" width="112.706" height="108.423" filterUnits="userSpaceOnUse" color-interpolation-filters="sRGB">
<feFlood flood-opacity="0" result="BackgroundImageFix"/>
<feColorMatrix in="SourceAlpha" type="matrix" values="0 0 0 0 0 0 0 0 0 0 0 0 0 0 0 0 0 0 127 0" result="hardAlpha"/>
<feOffset dy="5.34015"/>
<feGaussianBlur stdDeviation="8.90024"/>
<feComposite in2="hardAlpha" operator="out"/>
<feColorMatrix type="matrix" values="0 0 0 0 0.0785976 0 0 0 0 0.022066 0 0 0 0 0.170833 0 0 0 0.26 0"/>
<feBlend mode="normal" in2="BackgroundImageFix" result="effect1_dropShadow_25:141"/>
<feBlend mode="normal" in="SourceGraphic" in2="effect1_dropShadow_25:141" result="shape"/>
</filter>
<filter id="filter2_ii_25:141" x="244.68" y="106.588" width="25.981" height="40.1269" filterUnits="userSpaceOnUse" color-interpolation-filters="sRGB">
<feFlood flood-opacity="0" result="BackgroundImageFix"/>
<feBlend mode="normal" in="SourceGraphic" in2="BackgroundImageFix" result="shape"/>
<feColorMatrix in="SourceAlpha" type="matrix" values="0 0 0 0 0 0 0 0 0 0 0 0 0 0 0 0 0 0 127 0" result="hardAlpha"/>
<feOffset dy="-3.04619"/>
<feGaussianBlur stdDeviation="1.90387"/>
<feComposite in2="hardAlpha" operator="arithmetic" k2="-1" k3="1"/>
<feColorMatrix type="matrix" values="0 0 0 0 0.0716667 0 0 0 0 0.136167 0 0 0 0 0.716667 0 0 0 0.35 0"/>
<feBlend mode="normal" in2="shape" result="effect1_innerShadow_25:141"/>
<feColorMatrix in="SourceAlpha" type="matrix" values="0 0 0 0 0 0 0 0 0 0 0 0 0 0 0 0 0 0 127 0" result="hardAlpha"/>
<feOffset dy="-1.14232"/>
<feGaussianBlur stdDeviation="0.761547"/>
<feComposite in2="hardAlpha" operator="arithmetic" k2="-1" k3="1"/>
<feColorMatrix type="matrix" values="0 0 0 0 0.370833 0 0 0 0 1 0 0 0 0 0.685417 0 0 0 0.45 0"/>
<feBlend mode="normal" in2="effect1_innerShadow_25:141" result="effect2_innerShadow_25:141"/>
</filter>
<filter id="filter3_dii_25:141" x="243.133" y="99.849" width="56.3961" height="64.3247" filterUnits="userSpaceOnUse" color-interpolation-filters="sRGB">
<feFlood flood-opacity="0" result="BackgroundImageFix"/>
<feColorMatrix in="SourceAlpha" type="matrix" values="0 0 0 0 0 0 0 0 0 0 0 0 0 0 0 0 0 0 127 0" result="hardAlpha"/>
<feOffset dy="4.56928"/>
<feGaussianBlur stdDeviation="4.18851"/>
<feColorMatrix type="matrix" values="0 0 0 0 0 0 0 0 0 0.284091 0 0 0 0 1 0 0 0 0.35 0"/>
<feBlend mode="normal" in2="BackgroundImageFix" result="effect1_dropShadow_25:141"/>
<feBlend mode="normal" in="SourceGraphic" in2="effect1_dropShadow_25:141" result="shape"/>
<feColorMatrix in="SourceAlpha" type="matrix" values="0 0 0 0 0 0 0 0 0 0 0 0 0 0 0 0 0 0 127 0" result="hardAlpha"/>
<feOffset dy="-3.04619"/>
<feGaussianBlur stdDeviation="1.90387"/>
<feComposite in2="hardAlpha" operator="arithmetic" k2="-1" k3="1"/>
<feColorMatrix type="matrix" values="0 0 0 0 0.0716667 0 0 0 0 0.136167 0 0 0 0 0.716667 0 0 0 0.35 0"/>
<feBlend mode="normal" in2="shape" result="effect2_innerShadow_25:141"/>
<feColorMatrix in="SourceAlpha" type="matrix" values="0 0 0 0 0 0 0 0 0 0 0 0 0 0 0 0 0 0 127 0" result="hardAlpha"/>
<feOffset dy="-1.14232"/>
<feGaussianBlur stdDeviation="0.761547"/>
<feComposite in2="hardAlpha" operator="arithmetic" k2="-1" k3="1"/>
<feColorMatrix type="matrix" values="0 0 0 0 0.391667 0 0 0 0 1 0 0 0 0 0.695833 0 0 0 0.45 0"/>
<feBlend mode="normal" in2="effect2_innerShadow_25:141" result="effect3_innerShadow_25:141"/>
</filter>
<filter id="filter4_dii_25:141" x="272.035" y="100.373" width="26.3429" height="26.343" filterUnits="userSpaceOnUse" color-interpolation-filters="sRGB">
<feFlood flood-opacity="0" result="BackgroundImageFix"/>
<feColorMatrix in="SourceAlpha" type="matrix" values="0 0 0 0 0 0 0 0 0 0 0 0 0 0 0 0 0 0 127 0" result="hardAlpha"/>
<feOffset dy="3.941"/>
<feGaussianBlur stdDeviation="3.61259"/>
<feColorMatrix type="matrix" values="0 0 0 0 0 0 0 0 0 0.0450001 0 0 0 0 0.45 0 0 0 0.25 0"/>
<feBlend mode="normal" in2="BackgroundImageFix" result="effect1_dropShadow_25:141"/>
<feBlend mode="normal" in="SourceGraphic" in2="effect1_dropShadow_25:141" result="shape"/>
<feColorMatrix in="SourceAlpha" type="matrix" values="0 0 0 0 0 0 0 0 0 0 0 0 0 0 0 0 0 0 127 0" result="hardAlpha"/>
<feOffset dy="-2.62734"/>
<feGaussianBlur stdDeviation="1.64209"/>
<feComposite in2="hardAlpha" operator="arithmetic" k2="-1" k3="1"/>
<feColorMatrix type="matrix" values="0 0 0 0 0.690196 0 0 0 0 0.776941 0 0 0 0 1 0 0 0 1 0"/>
<feBlend mode="normal" in2="shape" result="effect2_innerShadow_25:141"/>
<feColorMatrix in="SourceAlpha" type="matrix" values="0 0 0 0 0 0 0 0 0 0 0 0 0 0 0 0 0 0 127 0" result="hardAlpha"/>
<feOffset dy="-0.487904"/>
<feGaussianBlur stdDeviation="0.656834"/>
<feComposite in2="hardAlpha" operator="arithmetic" k2="-1" k3="1"/>
<feColorMatrix type="matrix" values="0 0 0 0 1 0 0 0 0 1 0 0 0 0 1 0 0 0 0.75 0"/>
<feBlend mode="normal" in2="effect2_innerShadow_25:141" result="effect3_innerShadow_25:141"/>
</filter>
<filter id="filter5_dii_25:141" x="250.225" y="114.239" width="24.5822" height="22.1548" filterUnits="userSpaceOnUse" color-interpolation-filters="sRGB">
<feFlood flood-opacity="0" result="BackgroundImageFix"/>
<feColorMatrix in="SourceAlpha" type="matrix" values="0 0 0 0 0 0 0 0 0 0 0 0 0 0 0 0 0 0 127 0" result="hardAlpha"/>
<feOffset dy="3.941"/>
<feGaussianBlur stdDeviation="3.61259"/>
<feColorMatrix type="matrix" values="0 0 0 0 0 0 0 0 0 0.0450001 0 0 0 0 0.45 0 0 0 0.65 0"/>
<feBlend mode="normal" in2="BackgroundImageFix" result="effect1_dropShadow_25:141"/>
<feBlend mode="normal" in="SourceGraphic" in2="effect1_dropShadow_25:141" result="shape"/>
<feColorMatrix in="SourceAlpha" type="matrix" values="0 0 0 0 0 0 0 0 0 0 0 0 0 0 0 0 0 0 127 0" result="hardAlpha"/>
<feOffset dy="-1.46371"/>
<feGaussianBlur stdDeviation="1.64209"/>
<feComposite in2="hardAlpha" operator="arithmetic" k2="-1" k3="1"/>
<feColorMatrix type="matrix" values="0 0 0 0 0.57 0 0 0 0 0.6308 0 0 0 0 0.95 0 0 0 1 0"/>
<feBlend mode="normal" in2="shape" result="effect2_innerShadow_25:141"/>
<feColorMatrix in="SourceAlpha" type="matrix" values="0 0 0 0 0 0 0 0 0 0 0 0 0 0 0 0 0 0 127 0" result="hardAlpha"/>
<feOffset dy="-0.985251"/>
<feGaussianBlur stdDeviation="0.656834"/>
<feComposite in2="hardAlpha" operator="arithmetic" k2="-1" k3="1"/>
<feColorMatrix type="matrix" values="0 0 0 0 1 0 0 0 0 1 0 0 0 0 1 0 0 0 0.75 0"/>
<feBlend mode="normal" in2="effect2_innerShadow_25:141" result="effect3_innerShadow_25:141"/>
</filter>
<filter id="filter6_dii_25:141" x="263.168" y="117.475" width="29.4362" height="18.1096" filterUnits="userSpaceOnUse" color-interpolation-filters="sRGB">
<feFlood flood-opacity="0" result="BackgroundImageFix"/>
<feColorMatrix in="SourceAlpha" type="matrix" values="0 0 0 0 0 0 0 0 0 0 0 0 0 0 0 0 0 0 127 0" result="hardAlpha"/>
<feOffset dy="3.941"/>
<feGaussianBlur stdDeviation="3.61259"/>
<feColorMatrix type="matrix" values="0 0 0 0 0 0 0 0 0 0.0450001 0 0 0 0 0.45 0 0 0 0.65 0"/>
<feBlend mode="normal" in2="BackgroundImageFix" result="effect1_dropShadow_25:141"/>
<feBlend mode="normal" in="SourceGraphic" in2="effect1_dropShadow_25:141" result="shape"/>
<feColorMatrix in="SourceAlpha" type="matrix" values="0 0 0 0 0 0 0 0 0 0 0 0 0 0 0 0 0 0 127 0" result="hardAlpha"/>
<feOffset dy="-1.46371"/>
<feGaussianBlur stdDeviation="1.64209"/>
<feComposite in2="hardAlpha" operator="arithmetic" k2="-1" k3="1"/>
<feColorMatrix type="matrix" values="0 0 0 0 0.57 0 0 0 0 0.6308 0 0 0 0 0.95 0 0 0 1 0"/>
<feBlend mode="normal" in2="shape" result="effect2_innerShadow_25:141"/>
<feColorMatrix in="SourceAlpha" type="matrix" values="0 0 0 0 0 0 0 0 0 0 0 0 0 0 0 0 0 0 127 0" result="hardAlpha"/>
<feOffset dy="-0.985251"/>
<feGaussianBlur stdDeviation="0.656834"/>
<feComposite in2="hardAlpha" operator="arithmetic" k2="-1" k3="1"/>
<feColorMatrix type="matrix" values="0 0 0 0 1 0 0 0 0 1 0 0 0 0 1 0 0 0 0.75 0"/>
<feBlend mode="normal" in2="effect2_innerShadow_25:141" result="effect3_innerShadow_25:141"/>
</filter>
<filter id="filter7_dii_25:141" x="259.933" y="128.801" width="32.672" height="18.1096" filterUnits="userSpaceOnUse" color-interpolation-filters="sRGB">
<feFlood flood-opacity="0" result="BackgroundImageFix"/>
<feColorMatrix in="SourceAlpha" type="matrix" values="0 0 0 0 0 0 0 0 0 0 0 0 0 0 0 0 0 0 127 0" result="hardAlpha"/>
<feOffset dy="3.941"/>
<feGaussianBlur stdDeviation="3.61259"/>
<feColorMatrix type="matrix" values="0 0 0 0 0 0 0 0 0 0.0450001 0 0 0 0 0.45 0 0 0 0.65 0"/>
<feBlend mode="normal" in2="BackgroundImageFix" result="effect1_dropShadow_25:141"/>
<feBlend mode="normal" in="SourceGraphic" in2="effect1_dropShadow_25:141" result="shape"/>
<feColorMatrix in="SourceAlpha" type="matrix" values="0 0 0 0 0 0 0 0 0 0 0 0 0 0 0 0 0 0 127 0" result="hardAlpha"/>
<feOffset dy="-1.46371"/>
<feGaussianBlur stdDeviation="1.64209"/>
<feComposite in2="hardAlpha" operator="arithmetic" k2="-1" k3="1"/>
<feColorMatrix type="matrix" values="0 0 0 0 0.57 0 0 0 0 0.6308 0 0 0 0 0.95 0 0 0 1 0"/>
<feBlend mode="normal" in2="shape" result="effect2_innerShadow_25:141"/>
<feColorMatrix in="SourceAlpha" type="matrix" values="0 0 0 0 0 0 0 0 0 0 0 0 0 0 0 0 0 0 127 0" result="hardAlpha"/>
<feOffset dy="-0.985251"/>
<feGaussianBlur stdDeviation="0.656834"/>
<feComposite in2="hardAlpha" operator="arithmetic" k2="-1" k3="1"/>
<feColorMatrix type="matrix" values="0 0 0 0 1 0 0 0 0 1 0 0 0 0 1 0 0 0 0.75 0"/>
<feBlend mode="normal" in2="effect2_innerShadow_25:141" result="effect3_innerShadow_25:141"/>
</filter>
<filter id="filter8_dii_25:141" x="254.187" y="130.621" width="13.4173" height="13.9431" filterUnits="userSpaceOnUse" color-interpolation-filters="sRGB">
<feFlood flood-opacity="0" result="BackgroundImageFix"/>
<feColorMatrix in="SourceAlpha" type="matrix" values="0 0 0 0 0 0 0 0 0 0 0 0 0 0 0 0 0 0 127 0" result="hardAlpha"/>
<feOffset dy="3.941"/>
<feGaussianBlur stdDeviation="2.43952"/>
<feColorMatrix type="matrix" values="0 0 0 0 0 0 0 0 0 0.0450001 0 0 0 0 0.45 0 0 0 0.65 0"/>
<feBlend mode="normal" in2="BackgroundImageFix" result="effect1_dropShadow_25:141"/>
<feBlend mode="normal" in="SourceGraphic" in2="effect1_dropShadow_25:141" result="shape"/>
<feColorMatrix in="SourceAlpha" type="matrix" values="0 0 0 0 0 0 0 0 0 0 0 0 0 0 0 0 0 0 127 0" result="hardAlpha"/>
<feOffset dy="-1.46371"/>
<feGaussianBlur stdDeviation="1.64209"/>
<feComposite in2="hardAlpha" operator="arithmetic" k2="-1" k3="1"/>
<feColorMatrix type="matrix" values="0 0 0 0 0.57 0 0 0 0 0.6308 0 0 0 0 0.95 0 0 0 1 0"/>
<feBlend mode="normal" in2="shape" result="effect2_innerShadow_25:141"/>
<feColorMatrix in="SourceAlpha" type="matrix" values="0 0 0 0 0 0 0 0 0 0 0 0 0 0 0 0 0 0 127 0" result="hardAlpha"/>
<feOffset dy="-0.985251"/>
<feGaussianBlur stdDeviation="0.656834"/>
<feComposite in2="hardAlpha" operator="arithmetic" k2="-1" k3="1"/>
<feColorMatrix type="matrix" values="0 0 0 0 1 0 0 0 0 1 0 0 0 0 1 0 0 0 0.75 0"/>
<feBlend mode="normal" in2="effect2_innerShadow_25:141" result="effect3_innerShadow_25:141"/>
</filter>
<linearGradient id="paint0_linear_25:141" x1="359.927" y1="173.699" x2="262.988" y2="-64.8601" gradientUnits="userSpaceOnUse">
<stop stop-color="#FBFBFB"/>
<stop offset="0.0001" stop-color="white" stop-opacity="0.15"/>
<stop offset="1" stop-color="#FBFBFB" stop-opacity="0.83"/>
</linearGradient>
<linearGradient id="paint1_linear_25:141" x1="334.012" y1="189.456" x2="252.637" y2="88.3399" gradientUnits="userSpaceOnUse">
<stop stop-color="#FBFBFB"/>
<stop offset="0.0001" stop-color="white" stop-opacity="0.15"/>
<stop offset="1" stop-color="#FBFBFB" stop-opacity="0.83"/>
</linearGradient>
</defs>
</svg>
